<svg class="quick-links__icon" version="1.1" xmlns="http://www.w3.org/2000/svg" xmlns:xlink="http://www.w3.org/1999/xlink" x="0px" y="0px" width="42px" height="42px" viewBox="0 0 42 42"><path d="M40.862,34.604l-3.448-12.007c-0.558-1.941-2.612-3.464-4.676-3.464h-1.485 c0.699-1.651,1.132-3.216,1.132-4.506C32.385,8.492,27.277,3.5,21,3.5S9.615,8.492,9.615,14.628c0,1.269,0.453,2.843,1.181,4.518 c-0.001-0.004-0.003-0.008-0.005-0.012H9.262c-2.064,0-4.119,1.522-4.676,3.464L1.138,34.604c-0.286,1-0.122,1.995,0.452,2.734 C2.162,38.077,3.098,38.5,4.159,38.5h33.682c1.061,0,1.997-0.423,2.57-1.161C40.984,36.6,41.148,35.604,40.862,34.604z M21,5.297 c5.265,0,9.547,4.186,9.547,9.331c0,5.244-7.886,14.597-9.538,15.296c-1.658-0.75-9.556-10.174-9.556-15.296 C11.453,9.482,15.735,5.297,21,5.297z M29.028,23.355c-0.001,0.002-0.002,0.004-0.004,0.006h2.15c0.892,0,1.831,0.714,2.053,1.558 l2.051,7.856c0.095,0.362,0.041,0.693-0.151,0.935c-0.192,0.242-0.508,0.376-0.89,0.376H7.763c-0.382,0-0.698-0.134-0.89-0.376 c-0.192-0.241-0.246-0.572-0.151-0.935l2.051-7.856c0.221-0.844,1.161-1.558,2.052-1.558h2.227 c-0.002-0.004-0.005-0.008-0.007-0.012c2.759,4.416,6.42,8.393,7.955,8.393C22.589,31.742,26.278,27.787,29.028,23.355z M39.11,36.374c-0.266,0.343-0.716,0.53-1.27,0.53H4.159c-0.553,0-1.003-0.188-1.269-0.53s-0.329-0.816-0.18-1.339l3.449-12.007 c0.357-1.245,1.778-2.299,3.103-2.299h2.289c0,0,0-0.001-0.001-0.001c0.28,0.544,0.58,1.091,0.899,1.636h-1.624 c-1.367,0-2.702,1.013-3.041,2.307l-2.052,7.856c-0.171,0.657-0.05,1.312,0.334,1.795s1.003,0.762,1.697,0.762h26.474 c0.693,0,1.313-0.278,1.696-0.762s0.505-1.138,0.334-1.795l-2.052-7.856c-0.339-1.294-1.675-2.307-3.041-2.307h-1.553 c-0.002,0.002-0.003,0.006-0.005,0.008c0.315-0.546,0.615-1.096,0.891-1.643h2.23c1.324,0,2.746,1.054,3.103,2.299l3.448,12.007 C39.439,35.558,39.375,36.031,39.11,36.374z"/><path d="M26.933,14.628c0-3.197-2.661-5.799-5.933-5.799s-5.933,2.602-5.933,5.799s2.661,5.799,5.933,5.799 S26.933,17.825,26.933,14.628z M16.598,14.628c0-2.372,1.975-4.302,4.402-4.302c2.427,0,4.401,1.93,4.401,4.302 S23.427,18.931,21,18.931C18.573,18.931,16.598,17,16.598,14.628z"/></svg>
