<svg class="quick-links__icon" version="1.1" xmlns="http://www.w3.org/2000/svg" xmlns:xlink="http://www.w3.org/1999/xlink" x="0px" y="0px" width="42px" height="42px" viewBox="0 0 42 42"><path d="M33.68,6.551h-3.067V7.91h3.067c0.5,0,0.908,0.392,0.908,0.873v29.984c0,0.482-0.408,0.873-0.908,0.873 H8.32c-0.5,0-0.907-0.391-0.907-0.873V8.783c0-0.481,0.407-0.873,0.907-0.873h3.066V6.551H8.32C7.04,6.551,6,7.553,6,8.783v29.984 C6,39.998,7.04,41,8.32,41h25.36c1.279,0,2.32-1.002,2.32-2.232V8.783C36,7.553,34.959,6.551,33.68,6.551z"/><polygon points="26.944,18.026 19.27,26.749 15.056,21.961 13.001,24.296 19.27,31.418 28.998,20.361"/><path d="M26.989,6.551c-1.32-0.307-2.346-1.339-2.586-2.637 C24.194,2.274,22.759,1,21,1c-1.904,0-3.446,1.485-3.446,3.317c0,0.863-0.005,0.863-0.005,0c0-0.139,0.024-0.271,0.042-0.403 c-0.238,1.298-1.265,2.33-2.586,2.637h-1.488v1.407v0.401v0.402c0,0.854,0.726,1.553,1.614,1.553h11.739 c0.888,0,1.613-0.699,1.613-1.553V8.359V7.958V6.551H26.989z M21,6.178c-1.068,0-1.934-0.833-1.934-1.86S19.932,2.456,21,2.456 c1.066,0,1.934,0.834,1.934,1.861S22.066,6.178,21,6.178z"/></svg>
