<svg class="quick-links__icon" version="1.1" xmlns="http://www.w3.org/2000/svg" xmlns:xlink="http://www.w3.org/1999/xlink" x="0px" y="0px" width="42px" height="42px" viewBox="0 0 42 42"><path d="M26.949,16.006c-1.443,0-2.823,0.267-4.107,0.733v-4.862C22.842,6.431,18.391,2,12.921,2 C7.45,2,3,6.431,3,11.877v18.246C3,35.569,7.45,40,12.921,40c2.549,0,4.869-0.97,6.628-2.55c2.045,1.592,4.61,2.55,7.4,2.55 C33.594,40,39,34.618,39,28.003C39,21.388,33.594,16.006,26.949,16.006z M37.328,27.391H16.571c0.321-5.43,4.846-9.751,10.378-9.751 S37.006,21.96,37.328,27.391z M4.641,11.876c0-4.544,3.714-8.243,8.28-8.243c4.565,0,8.279,3.698,8.279,8.244v5.583l0.001-0.001 c-1.371,0.744-2.581,1.746-3.564,2.938c0.003-0.004,0.005-0.008,0.008-0.012H4.641V11.876z M4.641,30.123v-8.51h12.127 c-1.177,1.854-1.87,4.04-1.87,6.39c0,3.248,1.309,6.194,3.421,8.356c-1.452,1.247-3.336,2.007-5.399,2.007 C8.355,38.366,4.641,34.668,4.641,30.123z M26.949,38.366c-5.532,0-10.057-4.323-10.378-9.751h20.757 C37.006,34.043,32.481,38.366,26.949,38.366z"/></svg>
