<svg class="quick-links__icon" version="1.1" xmlns="http://www.w3.org/2000/svg" xmlns:xlink="http://www.w3.org/1999/xlink" x="0px" y="0px" width="42px" height="42px" viewBox="0 0 42 42"><path d="M30.751,2H11.249C9.458,2,8,3.404,8,5.13v31.74C8,38.596,9.458,40,11.249,40h19.502 C32.542,40,34,38.596,34,36.87V5.13C34,3.404,32.542,2,30.751,2z M32.375,36.87c0,0.863-0.729,1.565-1.624,1.565H11.249 c-0.896,0-1.625-0.702-1.625-1.565v-3.674h22.75V36.87z M32.375,32.218H9.625V9.782h22.75V32.218z M32.375,8.804H9.625V5.13 c0-0.864,0.729-1.566,1.625-1.566h19.502c0.896,0,1.624,0.702,1.624,1.566V8.804z"/><path d="M21,37.553c0.992,0,1.799-0.776,1.799-1.731c0-0.956-0.807-1.734-1.799-1.734s-1.799,0.778-1.799,1.734 C19.201,36.776,20.008,37.553,21,37.553z M21,35.065c0.432,0,0.784,0.339,0.784,0.756c0,0.415-0.352,0.753-0.784,0.753 s-0.784-0.338-0.784-0.753C20.216,35.404,20.568,35.065,21,35.065z"/><rect x="17.555" y="5.787" width="6.89" height="0.978"/></svg>
