<svg class="quick-links__icon" version="1.1" xmlns="http://www.w3.org/2000/svg" xmlns:xlink="http://www.w3.org/1999/xlink" x="0px" y="0px" width="42px" height="42px" viewBox="0 0 42 42"><path d="M36.984,23.193v-6.411v-4.418V8.651C36.984,7.19,35.768,6,34.271,6H7.729C6.232,6,5.015,7.19,5.015,8.651 v3.714v4.418v6.411L2,34.405v0.613C2,35.559,2.453,36,3.005,36h35.99C39.548,36,40,35.559,40,35.019v-0.613L36.984,23.193z M6.423,16.783v-4.418V8.651c0-0.704,0.586-1.276,1.307-1.276h26.541c0.721,0,1.307,0.572,1.307,1.276v3.714v4.418V22.6H6.423 V16.783z M24.631,33.029h-7.262v-2.551h7.262V33.029z M26.038,33.029v-2.65c0-0.704-0.586-1.276-1.307-1.276h-7.463 c-0.72,0-1.307,0.572-1.307,1.276v2.65H3.633l2.618-9.056h29.498l2.617,9.056H26.038z"/></svg>
