<svg version="1.1" xmlns="http://www.w3.org/2000/svg" xmlns:xlink="http://www.w3.org/1999/xlink" x="0px" y="0px"
	 width="42px" height="42px" viewBox="0 0 595.28 841.89" enable-background="new 0 0 595.28 841.89" xml:space="preserve">
	<rect width="595.28" height="841.89"/>
<rect x="-50000" y="-50000" width="100000" height="100000" fill="#e2e2e2" /><text x="100" y="100" style="text-anchor: middle;dominant-baseline: hanging;" fill="#FFFFFF" font-family="'Helvetica'" font-size="30">42 x 42</text><g id="Layer_2">
	<path fill="#FFFFFF" d="M314.667,288c1.625-2.033-0.922-3.644,0.666-9.333c4-14.333,20-16.333,19.666-19.667
		c-0.4-3.993-11.666-2.333-18-0.333c-5.262,1.662-13.998,6.667-15.666,6.667c-1.666,0-2.001-3-2.333-7.667
		c-0.333-4.667,5.333-22.333,3-23.333c-2.055-0.881-16.333,18-17.999,24S283,270,281,272c-1.054,1.054-6.667-1.667-8.667-3
		s-11.667-6.333-12.667-2.667C259.133,268.29,268,275,269,279.667c0.838,3.911-1,5.333,0.333,6.667s16.333-1.333,24-0.333
		C300.999,287,313.333,289.667,314.667,288z"/>
	<path fill="#FFFFFF" d="M281.333,603.001c3.375,1.929,0,74.667-2,77s-10,0.667-11-1s-8-22.334-8-34.334s3.667-36,6-38
		C269.391,604.046,279,601.668,281.333,603.001z"/>
	<path fill="#FFFFFF" d="M290.857,603.001c-3.375,1.929,0,74.667,2,77s10,0.667,11-1s8-22.334,8-34.334s-3.667-36-6-38
		C302.8,604.046,293.191,601.668,290.857,603.001z"/>
	<path fill="#FFFFFF" d="M117,202.5c0,6.577,86.5,99.5,89,104s3.5,8.5,0,13.5s-12,2-14.5,0s-90.511-89.865-97.5-90.5
		c-5.5-0.5-10.5,9-23.5,6s-20-9-19-23.5s10-17.5,14.5-18s11-2,12,1.5s2,3.5,4,3.5s-4.177-13.233-3.5-20c0.5-5,4-14.5,10.5-18.5
		s17.5-4.5,22-0.5s13,16,11,25S117,199,117,202.5z"/>
	<path fill="#FFFFFF" d="M456.172,204.5c0,6.577-86.5,99.5-89,104s-3.5,8.5,0,13.5s12,2,14.5,0s90.511-89.865,97.5-90.5
		c5.5-0.5,10.5,9,23.5,6s20-9,19-23.5s-10-17.5-14.5-18s-11-2-12,1.5s-2,3.5-4,3.5s4.177-13.233,3.5-20c-0.5-5-4-14.5-10.5-18.5
		s-17.5-4.5-22-0.5s-13,16-11,25S456.172,201,456.172,204.5z"/>
	<path fill="#FFFFFF" d="M259.369,602.315c-7.368,8.421-6.316,24.211-10.526,27.369s-3.158,6.315-34.681,0
		s-77.951-32.632-83.214-108.421s59.474-101.053,64.737-108.421S202,340.21,203.053,336s4.21-13.684,21.053-26.316
		s40.526-18.947,61.956-18.947c21.431,0,45.113,6.315,61.956,18.947s20,22.105,21.053,26.316s2.105,69.474,7.368,76.842
		c5.264,7.368,70.001,32.632,64.737,108.421c-5.263,75.789-51.69,102.105-83.214,108.421s-30.471,3.158-34.682,0
		c-4.21-3.158-3.158-18.948-10.525-27.369c-7.369-8.421-17.219-9.474-26.693-9.474C276.588,592.842,266.737,593.895,259.369,602.315
		z M286.062,496.848c2,0,4.5,0,7.5,4c3.498,4.665,10,7,13.5,6s4-5.5,1-15s-10.25-18-22-18c-11,0-19,8.5-22,18s-2.5,14,1,15
		s10.001-1.335,13.5-6C281.562,496.848,284.062,496.848,286.062,496.848z M221,397.5c0,8.25,4.25,29,26,29.5s32.5-21.25,30.75-37.25
		S253.661,364.645,247,365C228.25,366,221,389.25,221,397.5z M321.594,365.127c-11.831,1.014-30.594,15.373-27.32,33.147
		c3.897,21.162,15.198,25.481,25.836,25.976c10.637,0.495,30.644-7.668,30.891-24.985S338.91,363.643,321.594,365.127z"/>
</g>
</svg>