<?xml version="1.0" encoding="utf-8"?>
<!-- Generator: Adobe Illustrator 20.1.0, SVG Export Plug-In . SVG Version: 6.00 Build 0)  -->
<!DOCTYPE svg PUBLIC "-//W3C//DTD SVG 1.1//EN" "http://www.w3.org/Graphics/SVG/1.1/DTD/svg11.dtd">
<svg version="1.1" id="Layer_1" xmlns="http://www.w3.org/2000/svg" xmlns:xlink="http://www.w3.org/1999/xlink" x="0px" y="0px"
	 viewBox="0 0 439.5 62" style="enable-background:new 0 0 439.5 62;" xml:space="preserve">
<style type="text/css">
	.st0{fill:none;stroke:#000000;stroke-width:0.5;stroke-miterlimit:10;}
	.st1{enable-background:new    ;}
</style>
<path class="st0" d="M91,38.6h347.6"/>
<path d="M28,48.2c-0.1,0.1-0.1,0.2-0.2,0.2"/>
<path d="M30,33.2c0.2,0,0.4-0.2,0.4-0.4s-0.2-0.4-0.4-0.4s-0.4,0.2-0.4,0.4S29.7,33.2,30,33.2z M48.6,16.2H34.1v11.7
	c0,1.1,0.5,2.1,1.1,2.4l5.6,3.3c0.1,0.1,0.3,0.2,0.5,0.2s0.3-0.1,0.5-0.2l5.7-3.4c0.7-0.3,1.1-1.3,1.1-2.4
	C48.6,27.8,48.6,16.2,48.6,16.2z M38.9,19.6h-1.3v-3h1.3V19.6z M38,20.6l0.2-0.2l-0.1-0.2h0.2l0.1-0.2l0.1,0.2h0.2l-0.1,0.2l0.2,0.2
	h-0.2v0.2l-0.2-0.2l-0.2,0.2v-0.2H38z M34.5,24.4v-2.8H36v2.8H34.5z M34.8,20.2H35l0.1-0.2l0.1,0.2h0.2l-0.1,0.2l0.2,0.2h-0.2v0.2
	l-0.2-0.2l-0.2,0.2v-0.2h-0.2l0.2-0.2L34.8,20.2z M36.5,23.1h0.2l0.1-0.2l0.1,0.2h0.2L37,23.3l0.2,0.2H37v0.2l-0.2-0.2l-0.2,0.2
	v-0.2h-0.2l0.2-0.2L36.5,23.1z M37.5,20.8c0-0.1-0.1-0.1-0.2-0.1L37,20.9c0,0-0.1,0-0.1-0.1s0.2-0.1,0.2-0.2c-0.9,0-1,0.4-1.1,0.4
	c-0.2,0,0.2-0.5,0.3-0.6c-0.2,0-0.3-0.3-0.5-0.4c0.1-0.1,0.2-0.1,0.3,0c0-0.1,0.1-0.2,0.3-0.2c0.4,0,0.3,0.4,0.4,0.4
	c0.1,0,0-0.4,0.3-0.4c0.4,0,0.9,1.1,0.5,1.1C37.3,21,37.5,20.9,37.5,20.8z M36.4,17.7l0.2-0.2l-0.1-0.2h0.2l0.1-0.2l0.1,0.2h0.2
	L37,17.5l0.2,0.2H37v0.2l-0.2-0.2l-0.2,0.2v-0.2H36.4z M36,16.6v3h-1.5v-3H36z M38.9,32.1L35.4,30c-0.6-0.4-0.9-1.1-0.9-1.9v-3.3
	h4.4V32.1z M37.7,24.4v-2.8H39v2.8H37.7z M43.4,32.3l-1.6,1c-0.1,0.1-0.3,0.1-0.4,0.1s-0.3-0.1-0.4-0.2l-1.6-1v-7.5h4.1
	C43.5,24.7,43.4,32.3,43.4,32.3z M43.4,24.4h-4.1v-7.8h4.1C43.4,16.6,43.4,24.4,43.4,24.4z M48.2,28c-0.1,0.8-0.4,1.5-0.9,1.9
	L43.8,32v-7.3h4.4V28z M48.2,24.4h-4.4v-7.8h4.4C48.2,16.6,48.2,24.4,48.2,24.4z M38.7,27.4c0-0.1-0.5,0.2-0.4,0.2
	c0-0.2,0.3-0.5,0.4-0.6c0-0.2-0.3,0-0.5,0.1c0.8-1.2,0.3-0.7-0.2-0.6c0.7-0.8,0.5-0.8,0-0.5c0.4-0.3,0.5-0.7,0.5-0.9
	c-0.4,0.5-0.8,0.4-0.8,0.9c0,0.3-0.1,0.9-0.3,1c-0.2,0.2-0.1-0.9-0.6-0.9c-0.2,0-0.6,0-0.7,0.2c0.1,0,0.3,0.3,0.3,0.4
	s0.1,0.4-0.1,0.4s-0.4-0.4-0.4-0.6v-0.4c0-0.5-0.8-1.1-1.1-1.1c0,0.3,0.4,0.4,0.4,0.8c-0.2,0-0.4-0.3-0.4-0.1l0.3,0.4l-0.3,0.1
	c0,0,0.2,0.1,0.2,0.3h-0.3c0,0.1,0,0.1,0.1,0.2c0,0-0.1,0.1-0.1,0.4c0,0.9,0.6,1.4,1,1.4c0.3,0,0.3-0.2,0.3-0.3
	c0,0.2,0.2-0.1,0.2,0.2c0,0.3-0.3,0.2-0.3,0.4c0,0.3,0.5,0,0.5,0.4s-0.1,0.4-0.1,0.6c0,0.1,0.5-0.2,0.5-0.2c0.1,0,0.1,0.4,0.3,0.4
	l0.3-0.4c-0.1,0,0.4,0.3,0.4,0.2c0-0.4-0.2-0.2-0.2-0.5s0.6-0.2,0.5-0.4c-0.1-0.1-0.1,0-0.2-0.2c0,0-0.5-0.7,0.1-0.3
	C38.6,28.8,38.7,27.5,38.7,27.4z M54.1,30.5c0.3,0,0.5-0.2,0.5-0.4s-0.2-0.4-0.5-0.4s-0.5,0.2-0.5,0.4
	C53.7,30.3,53.9,30.5,54.1,30.5z M52.2,31.6c0.3,0,0.5-0.2,0.5-0.4s-0.2-0.4-0.5-0.4s-0.5,0.2-0.5,0.4S52,31.6,52.2,31.6z
	 M29.3,34.3c0.3,0,0.5-0.2,0.5-0.4s-0.2-0.4-0.5-0.4s-0.5,0.2-0.5,0.4S29,34.3,29.3,34.3z M30.8,34.4c0.3,0,0.5-0.2,0.5-0.4
	s-0.2-0.4-0.5-0.4s-0.5,0.2-0.5,0.4S30.5,34.4,30.8,34.4z M72,14.4c0.7,0.8,0.9,2.2,0.4,3.2c-0.3,0-0.2-0.4-0.3-0.6
	c-0.5-0.9-0.9-2.1-0.5-3.2C72,13.8,71.8,14.3,72,14.4z M11.5,15.6c-0.2,0.6-0.2,1.5,0,2c-0.1,0.1-0.1-0.1-0.2-0.1
	c-1-0.7-0.5-2.1-0.8-3.1c0.1-0.1,0.2-0.1,0.2-0.1C11.2,14.6,11.4,15.1,11.5,15.6z M74.2,15.7c0.1,0.3-0.1,0.6-0.3,0.7
	c-0.2,0.1-0.5-0.1-0.6-0.3c-0.1-0.3,0.1-0.5,0.3-0.7C73.8,15.4,74,15.4,74.2,15.7z M10,16.8c-0.1,0.2-0.1,0.5-0.3,0.6
	c-0.2,0-0.4,0-0.5-0.1C9,17.2,9,16.9,9.1,16.8c0.1-0.2,0.3-0.2,0.5-0.2C9.7,16.5,9.9,16.6,10,16.8z M75.2,17.2
	c0.1,0.2,0.1,0.3,0,0.4c-0.2,0.2-0.4,0.3-0.7,0.2c-0.2-0.1-0.2-0.3-0.3-0.4c0.1-0.2,0.2-0.4,0.4-0.5C74.9,16.9,75,17.1,75.2,17.2z
	 M73.7,17.2c0.2,0.1,0.1,0.4,0,0.5S73.4,18,73.2,18c-0.1-0.1-0.3-0.1-0.3-0.3c0-0.3,0.1-0.5,0.4-0.6C73.5,17.1,73.6,17.1,73.7,17.2z
	 M71.9,17.6c0,0.3,0,0.6-0.3,0.7s-0.5-0.2-0.6-0.4c0-0.3,0.1-0.5,0.4-0.6C71.6,17.3,71.8,17.5,71.9,17.6z M12.7,17.7
	c0.1,0.3-0.2,0.4-0.3,0.5c-0.2,0.1-0.4-0.1-0.5-0.3c-0.2-0.2,0.1-0.3,0.1-0.5C12.3,17.3,12.6,17.5,12.7,17.7z M11.2,17.8
	c0,0.2-0.1,0.4-0.3,0.5s-0.4-0.1-0.5-0.2c-0.1-0.2,0-0.5,0.2-0.6C10.9,17.4,11.1,17.6,11.2,17.8z M65.8,17.9
	c0.2,0.5,0.5,1.2,0.5,1.8c-0.1,0.5,0.1,1.1-0.3,1.5c-0.4-0.1-0.4-0.6-0.6-0.8c-0.5-0.9-0.1-1.9,0.1-2.8
	C65.7,17.5,65.7,17.8,65.8,17.9z M10,18.2c0.1,0.3-0.1,0.5-0.3,0.6c-0.3,0.1-0.5-0.2-0.6-0.4c0-0.2,0.1-0.5,0.3-0.6
	C9.7,17.9,9.9,18,10,18.2z M69.8,19c0.3,0.7,0.4,1.6,0.1,2.4l-0.2,0.1c-0.4-0.7-0.9-1.3-1-2.1c0-0.5,0.1-1,0.3-1.5
	c0.2-0.1,0.3,0,0.4,0.2C69.4,18.5,69.5,18.8,69.8,19z M73,18.5c0,0.3-0.1,0.5-0.4,0.6c-0.2,0.1-0.5,0-0.6-0.3s0.1-0.5,0.3-0.6
	C72.6,18,72.8,18.3,73,18.5z M11.3,19.3c0,0.2-0.2,0.4-0.4,0.5c-0.2,0.2-0.4-0.1-0.5-0.2c-0.1-0.2-0.1-0.4,0-0.6s0.2-0.2,0.4-0.2
	C11,18.9,11.2,19,11.3,19.3z M12.4,19.2c0.1,0.2-0.2,0.4-0.3,0.5c-0.3,0.1-0.5-0.1-0.6-0.3c-0.1-0.3,0.1-0.4,0.3-0.6
	C12.1,18.7,12.2,18.9,12.4,19.2z M73.7,19.1c0,0.3-0.5,0.7-0.6,1c-0.3,0.7-0.9,1.2-1.6,1.4c-0.1,0.1-0.4,0.3-0.6,0.3
	c-0.1-0.5,0.4-1,0.7-1.4C72.2,19.7,72.9,19.3,73.7,19.1z M10.8,20.2l1,1.2c0,0.1-0.1,0.3-0.2,0.3c-1.2-0.1-2.1-1.3-2.7-2.2
	c0.1-0.3,0.4-0.1,0.6-0.1C9.9,19.6,10.4,19.7,10.8,20.2z M74,20.5c-0.1,1.1-0.6,2.2-1.6,2.7c-0.3,0.1-0.6,0.4-0.9,0.2
	c0.5-1.1,1.3-2,2.2-3L74,20.5C74,20.4,74,20.5,74,20.5z M69.2,21.2c0.1,0.4-0.1,0.6-0.4,0.7c-0.3,0-0.5-0.2-0.6-0.4
	c0-0.2,0.1-0.5,0.4-0.6c0.1-0.1,0.2-0.1,0.3-0.1C69,21,69,21.1,69.2,21.2z M9.4,21.5c0.5,0.3,0.9,0.8,1.4,1.2c-0.3,0.2-0.7,0-1.1,0
	l-2.3-1.3c0-0.3,0.4-0.2,0.5-0.3C8.4,21.1,8.8,21.3,9.4,21.5z M36.4,13.9c-1.4-0.6-2.4,0.9-3.8,0.7c-0.2,0.1-0.1,0.3-0.2,0.4h-0.3
	l-0.4-1.8c-0.1-0.2-0.1-0.6-0.2-0.9c-0.8-2.2,2-0.5,2.5-1.8c0.5-1.1-0.9-1.2-1.4-2V8.2c-0.4-0.4-0.8-0.5-1.1-1.1
	c0.2-0.6,0.2-1.3,0.1-2c0-0.2-0.1-0.4-0.4-0.3c-0.5,0.7-0.8,1.2-1.3,1.8c-0.5-0.4-0.9-0.8-1.5-1.1c-0.4-0.1-0.7-0.4-1.2-0.3
	c-0.1,0.2,0,0.3,0.1,0.4c0,1,0.5,1.8,1.2,2.5l0.1,0.4c-0.5,1-0.3,2.2-0.5,3.4c-1.1,2.9-3,5.7-5.5,7.7c-1.4,1.6-3.2,3.2-3.4,5.4
	c-0.1,0.4,0.1,0.8-0.2,1c-0.8-0.3-1.7-0.7-2.4-1.2c-1.2-0.8-2.8-0.7-3.6-2.2c-0.3-0.6,0.1-1.2,0.4-1.6c0.9-0.8,0.7-2.3,0.3-3.3
	l-0.2,0.1c-0.1,1.5-1.3,2.5-0.8,4.2c0.1,0.5,0.4,0.8,0.5,1.2c-0.2-0.1-0.4-0.1-0.6-0.1c-0.6-0.1-1.1-0.3-1.7-0.2
	c-1.2,0.5-2.8-0.1-3.7,0.9c-0.2,0-0.4,0.1-0.3,0.3c0.6,0,1.1,0.2,1.6,0.1c0.9,0.2,1.5-0.6,2.1-0.9h0.2c0.2-0.3,0.7-0.1,1-0.2
	c1.6,0.2,2.8,0.9,4.1,1.7v0.1c-0.5,0.2-1.1,0.4-1.6,0.7c-0.6,0.4-1.2,1-1.4,1.7c-0.4,0.6,0.1,1.2,0.4,1.7c0,0.3,0.1,0.6,0.3,0.7
	c0.8-0.9,0.1-1.9,0.2-2.9c0.2-0.8,0.9-1.1,1.6-1.3c1.4-0.6,2.5,0.6,3.6,1.2c0,1.2,0.1,2.3-0.1,3.4c-0.4,0.1-0.8,0.2-1.2,0.2
	c-2,0.2-3.6,1.2-5.4,1.9l-2.6,0.6c0.6,0.2,1.3-0.1,1.9-0.1c2.5-0.4,4.4-2.3,7-1.9l0.1,0.1c-0.3,0.6-0.7,1.2-1.2,1.7
	c-0.1-0.3-0.1-0.5-0.4-0.7c-0.2-0.1-0.4,0-0.6,0.2c-0.1,0.1-0.1,0.3,0,0.4c0.1,0.2,0.3,0.3,0.5,0.4c-0.1,0.2-0.3,0.3-0.5,0.5
	c-0.7,1.2-2.2,0.7-3,1.6c-0.1,0.2-0.6,0.3-0.4,0.6c1,0.1,1.9-0.2,2.6-0.7c0.9-1,1.9-2,2.9-3c0.2,0.8-0.1,1.7-0.6,2.3
	c-0.2-0.1-0.4-0.3-0.7-0.4c-0.3,0.1-0.4,0.3-0.5,0.5c0.1,0.2,0.2,0.4,0.4,0.5c-0.9,0.6-1.9,0.7-2.9,0.9c-1.8,0.2-3.6,0.4-5.5,0.4
	c-0.9-0.1-1.9,0.3-2.7,0c-1,0.2-2-0.1-2.8,0.4c-0.1,0.1,0,0.3,0,0.4c1.2,0.8,2.8,0.2,4.1,0.4h10c0.7,0,1.5-0.1,2.1-0.4
	c1.3-0.7,2-2.1,2.7-3.4c0.2-0.5,0.4-1,0.5-1.5c0.2-0.9,1-1.5,1.9-1.6c0.1,1.3-0.1,2.6-0.4,3.9c-0.2,0.8-0.7,1.6-0.4,2.5
	c0.1,0.4,0.5,0.4,0.8,0.5c3.1-0.1,6.1-0.2,9.3,0.1c0.6,0.1,1.1,0.3,1.7,0.3c0.1-0.1,0.2-0.1,0.2-0.3c-0.1-0.3-0.3-0.6-0.6-0.7
	c-0.1-0.2-0.3-0.1-0.4-0.2c-1.6-0.9-3.6-0.4-5.5-0.4c-1,0.1-2,0.3-2.8-0.3c-0.4-0.5-0.1-1.9-0.1-1.9c0-0.6,1.4-4.6,1.6-4.9
	c0.1-0.4,0.2-0.7,0.2-1.2c0.7-0.5,0.7-1.1,0.7-1.7c0.1-0.8,0.5-1.6,0.8-2.4l0.4-1.2c0.2-0.5,0.2-0.9,0.5-1.3c0.8,0.5,1.6,0.5,2,1.4
	l0.4,2.1c0,0.1,0.1,0.4,0.3,0.2c0.7-0.4,0.5-1.4,0.5-2.1c0.1-0.8-0.4-1.2-0.6-1.9c-0.2-0.1-0.5-0.7-0.5-0.7c-0.1-0.6-1.3-0.9-1-1.6
	c0.2-0.6,0.3-1.1,0.9-1.5c0.1,0.1,0.1,0.1,0.1,0.2h0.2v-2.1c0.8,0,2,0.1,2.9,0.1c0.2,0.1,0.4,0.3,0.7,0.3l0.2-0.3l2-0.4
	C37.8,14.9,37.2,13.9,36.4,13.9z M38.6,14.8h0.2H38.6z M16.6,21.9c0,0.3-0.2,0.5-0.4,0.6c-0.2-0.1-0.4-0.1-0.5-0.3
	c-0.1-0.3,0.2-0.5,0.4-0.6C16.3,21.7,16.6,21.7,16.6,21.9z M15,21.9c0.2,0.2,0.2,0.4,0.1,0.6c-0.2,0.2-0.5,0.3-0.6,0.1
	c-0.2-0.2-0.3-0.3-0.2-0.5C14.5,21.9,14.8,21.7,15,21.9z"/>
<path d="M69.4,22.6c0.1,0.3-0.1,0.5-0.3,0.6c-0.3-0.1-0.6-0.1-0.6-0.5c0-0.2,0.2-0.3,0.4-0.4C69.1,22.3,69.3,22.5,69.4,22.6z
	 M70.8,22.6c0.1,0.1,0.2,0.3,0.1,0.5c-0.1,0.1-0.2,0.1-0.2,0.2c-0.3,0.1-0.5-0.1-0.6-0.3c-0.1-0.3,0.2-0.4,0.4-0.5
	C70.5,22.4,70.6,22.5,70.8,22.6z M8.6,22.9c-0.1,0.3-0.4,0.4-0.7,0.3c-0.1-0.1-0.2-0.2-0.2-0.3c0-0.2,0.1-0.4,0.3-0.4
	C8.3,22.5,8.6,22.6,8.6,22.9z M17.2,23.3c0,0.2-0.3,0.4-0.4,0.5c-0.3,0-0.4-0.2-0.6-0.4c0-0.2,0.1-0.5,0.3-0.5
	C16.8,22.8,17.1,23.1,17.2,23.3z M15.7,23.2c0.1,0.1,0.2,0.3,0.1,0.4c-0.2,0.1-0.4,0.4-0.6,0.2c-0.2-0.1-0.3-0.2-0.3-0.5
	c0.1-0.1,0.2-0.3,0.4-0.3C15.4,22.9,15.5,23.1,15.7,23.2z M74.6,23.5c0,0.2-0.2,0.4-0.3,0.5c-0.2,0.1-0.4,0-0.6-0.1
	c-0.1-0.1-0.1-0.3-0.1-0.4c0.1-0.2,0.3-0.3,0.5-0.3C74.4,23.2,74.5,23.3,74.6,23.5z M76.3,23.7c-0.1,0.2-0.2,0.4-0.5,0.5
	c-0.2,0-0.4-0.1-0.4-0.3c0-0.2,0.1-0.4,0.2-0.4C75.9,23.3,76.2,23.4,76.3,23.7z M11.5,24c0.1,0.3-0.1,0.5-0.3,0.6s-0.4,0-0.5-0.1
	s-0.2-0.3-0.1-0.5s0.3-0.2,0.4-0.3C11.3,23.8,11.4,23.9,11.5,24z M12.8,24.3c0.1,0.2-0.2,0.3-0.2,0.4c-0.1,0.1-0.3,0.2-0.5,0.1
	c-0.2-0.2-0.4-0.4-0.2-0.6C12.1,23.8,12.6,24,12.8,24.3z M73.1,24.2c0,0.2-0.2,0.4-0.4,0.6c-0.2,0.1-0.5-0.1-0.5-0.3
	c0-0.2,0.1-0.4,0.3-0.5C72.8,23.9,73,23.9,73.1,24.2z M75.2,24.6c-0.1,0.2,0,0.5-0.3,0.6c-0.2,0.1-0.5,0-0.6-0.1s-0.2-0.4-0.1-0.5
	c0.1-0.2,0.4-0.4,0.6-0.3C75,24.3,75.1,24.5,75.2,24.6z M10.6,25.1c0.1,0.2-0.1,0.3-0.2,0.4c-0.2,0.1-0.4,0-0.5-0.1
	c-0.2-0.1-0.1-0.4-0.1-0.5C10,24.5,10.5,24.8,10.6,25.1z M73.6,25.6c0.1,0,0.1,0.2,0,0.2c-0.6,0.3-1.5,0.4-2-0.1
	c-0.3-0.3-0.7-0.4-1-0.6c0.1-0.3,0.6-0.3,0.9-0.4C72.2,24.9,72.8,25.6,73.6,25.6z M11.8,25.3c0.1,0.2-0.1,0.3-0.2,0.4
	c-0.1,0.2-0.3,0.1-0.4,0.1c-0.2-0.2-0.3-0.4-0.2-0.6C11.3,24.9,11.6,25.1,11.8,25.3z M14,25.5c0.1,0.2-0.1,0.4-0.2,0.6
	c-0.2,0.1-0.3-0.1-0.5-0.1c-0.1-0.2-0.4-0.4-0.1-0.6C13.4,25,13.8,25.2,14,25.5z M43.2,26.6c-0.1,0.5-0.9-0.1-0.8,0.6
	c0.1,0.5,0.2,1.1,0.5,1.4c0.2,0.3,0.1,0.9,0.1,1.3c-0.2,0.4-0.6,0.6-1,0.8c-0.7-0.1-1.8,0.4-2.1-0.5c-0.1-0.4-0.4-0.8-0.4-1.2
	c0.1-0.1,0.2-0.1,0.2-0.1c0-0.2-0.2-0.3-0.2-0.4c0.8-0.1-0.3-0.9,0.4-0.9c0.6,0.6,1.5,0.4,2,1.1c0.1,0.1,0.2,0.2,0.4,0.3
	c-0.1-0.6-0.4-1.2-0.5-1.9c-0.1-0.3,0.1-0.7,0.3-0.8C42.6,25.8,43,26.3,43.2,26.6z M16.2,26.4c0.1,0.3-0.1,0.4-0.3,0.5
	s-0.4-0.2-0.5-0.3c-0.1-0.3,0.1-0.4,0.3-0.5C15.9,26.2,16.1,26.2,16.2,26.4z M31.8,26.7c0.3,1,0.2,2-0.3,2.9c0,0.2,0.1,0.5-0.2,0.5
	c-0.7-0.9-0.2-2.3,0.1-3.3C31.4,26.5,31.8,26.4,31.8,26.7z M53.5,27.1c0.4,0.7,0.4,1.7,0.1,2.4l-0.2,0.2c-0.3-0.6-0.5-1.2-0.6-1.8
	c0.1-0.5,0.3-0.9,0.3-1.3C53.4,26.5,53.4,27,53.5,27.1z M18.2,27.4c-0.2,0.3-0.6,0.4-0.9,0.6c-0.6,0.5-1.5,0.6-2.2,0.4
	c0.7-0.9,1.7-1.5,2.9-1.2C18,27.4,18.2,27.3,18.2,27.4z M7.8,28.3C8.7,29,9,29.9,9.5,30.8c0.1,0.1,0.3,0.1,0.2,0.3
	C9.5,31.3,9.3,30.9,9,31c-1-0.4-1.6-1.5-1.5-2.6C7.6,28.3,7.7,28.3,7.8,28.3z M52.5,29.1c0,0.3,0,0.5-0.2,0.6
	c-0.3,0.1-0.5-0.1-0.6-0.3c-0.1-0.2,0.1-0.3,0.1-0.4C52,28.8,52.3,28.9,52.5,29.1z M63.1,30.5c0-0.5,0.1-0.9,0.2-1.4
	c0.1-0.2,0.1-0.3,0.1-0.5c0.6-0.8,1.8-0.6,2.8-0.5c0.4,0.2,0.9,0.2,1.3,0.3c0.2-0.1,0.4-0.2,0.6-0.1c0.8-0.4,0.3-1.4,0.3-2.1
	l-0.3-0.8c-0.1-0.2-0.2-0.3-0.2-0.5c-0.1-0.2-0.2-0.5-0.4-0.7c-0.4-1.1-1.3-1.8-2-2.6c-1.3-1.7-3.3-2.6-5.3-3.3
	c-2-0.7-4,0.2-5.8,0.8c-0.5-0.2-0.8-0.6-1-1.1c-0.1-1,0.1-1.9,0.5-2.7c0.1-0.6,0.5-1.1,0.7-1.7c0.5-1.4,0.9-2.8,1-4.4
	c0.1-0.9-0.7-1.6-1.4-2c-0.5-0.1-1-0.1-1.4,0.3c-0.3,0.7-1,1.2-1.6,1.5c-0.1,0.4,0.5,0.2,0.7,0.3c0.6,0.1,1.2-0.1,1.6,0.3
	c0.1,1-0.5,1.9-1.1,2.6c-0.9,1.3-1.8,2.6-2.3,4L50,16.1l0.1,6.2c0.8,1.3,1.8,2.9,3.3,3.4c0.8,0.7,1.8,1.5,2.9,0.9
	c0.6-0.2,0.6,0.6,0.9,1c0.3,0.9-0.4,1.6-0.4,2.5l-0.7,1.4c-0.8,1.5-1.4,3.1-2.6,4.3l-1,0.4c-0.2,0.3-0.6,0.1-0.9,0.2
	c-0.8,0.3-1.9,0.1-2.4,0.9c0.1,0.1,0.1,0.1,0.2,0.1c1.5,0,3.3,0.1,4.9,0.1c0.2-0.1,0.4-0.3,0.4-0.5c-0.2-0.4,0.1-0.8,0.3-1.1
	c0.1-0.6,0.5-1,0.7-1.6c0.5-1,1.1-2.1,1.7-3.1l0.8-1.3c0.2-0.4,0.5-1,0.8-1.4c0.2-0.2,0.3-0.4,0.5-0.7c0-0.3-0.1-0.4-0.2-0.5
	c0.2-0.2,0.5-0.1,0.7-0.2c0.6,0.4,1.3,1,1.4,1.7l0.2,0.7l0.1,0.3l-0.1,0.8l0.1,0.8c0.1,1.2-0.1,2.5-0.2,3.7
	c-0.4,1.5-2.1,1.3-3.3,1.7c-0.3,0.2-0.9,0.1-0.9,0.6c1.5,0.3,3.2,0.1,4.7,0.1c0.2-0.1,0.3-0.3,0.4-0.6c0.1-0.3,0.4-0.6,0.3-1
	c-0.3-0.4,0-0.9-0.1-1.4c0.1-0.1,0.1-0.3,0-0.5c0.2-0.7,0.2-1.6,0.3-2.3C62.9,31.7,63.1,30.5,63.1,30.5z M75.6,29.5
	c-0.8,1.1-1.7,2.4-3.1,2.9c-0.1,0-0.2,0.1-0.2-0.1c0.9-0.9,1.3-2.3,2.7-2.7C75.1,29.5,75.4,29.4,75.6,29.5z M6.6,30.7
	c-0.1,0.1,0,0.3-0.2,0.4s-0.4,0-0.5-0.2c-0.1-0.3,0.1-0.5,0.3-0.6C6.3,30.4,6.5,30.5,6.6,30.7z M13.9,31.1c0.1,0.2-0.2,0.2-0.3,0.3
	c-1.1,0.4-2.1,0-2.9-0.7c0-0.1,0-0.2,0.1-0.2C11.8,30.7,13,30.5,13.9,31.1z M8,30.8c0.1,0.1,0.1,0.3,0.1,0.4
	c-0.2,0.2-0.4,0.3-0.6,0.2c-0.2-0.1-0.2-0.2-0.3-0.3c0-0.3,0.2-0.4,0.4-0.5C7.7,30.6,7.8,30.6,8,30.8z M31.6,30.9
	c0.1,0.2-0.2,0.4-0.3,0.5c-0.2,0.1-0.4-0.1-0.5-0.2c-0.1-0.2,0-0.4,0.2-0.5S31.6,30.7,31.6,30.9z M76.5,31c0.1,0.2-0.1,0.4-0.3,0.5
	s-0.3,0-0.5-0.1c0-0.1-0.2-0.2-0.1-0.4s0.3-0.3,0.6-0.3L76.5,31z M78.2,30.9c0.2,0.2,0,0.4-0.1,0.6s-0.3,0.2-0.5,0.2
	c-0.2-0.2-0.4-0.2-0.4-0.5c0-0.2,0.2-0.4,0.4-0.4C77.9,30.6,78,30.9,78.2,30.9z M5.5,31.6c0,0.2-0.1,0.3-0.2,0.4
	c-0.1,0.1-0.2,0.2-0.4,0.1s-0.3-0.2-0.4-0.4c0.1-0.2,0.2-0.4,0.5-0.5C5.2,31.3,5.4,31.4,5.5,31.6z M58.7,31.6c0.1,0.1,0,0.2,0,0.3
	c-0.2,0.2-0.4,0.4-0.6,0.2c-0.2-0.2-0.3-0.3-0.2-0.5C58.1,31.4,58.5,31.3,58.7,31.6z M9.6,32c-0.1,0.2-0.1,0.4-0.4,0.4
	s-0.3-0.2-0.4-0.3c0-0.2,0-0.5,0.2-0.6C9.3,31.4,9.6,31.7,9.6,32z M7.2,32.1c0.1,0.3-0.1,0.4-0.2,0.6c-0.3,0.1-0.6-0.1-0.7-0.4
	c0-0.2,0.2-0.5,0.5-0.6C6.9,31.7,7,31.9,7.2,32.1z M60.4,32c0.1,0.2,0,0.5-0.3,0.6s-0.6-0.2-0.7-0.4c0.1-0.2,0.2-0.5,0.5-0.5
	C60.1,31.7,60.3,31.8,60.4,32z M8.3,32.1c0.1,0.2-0.1,0.3-0.1,0.4c-0.1,0-0.2,0.2-0.4,0.1c-0.1-0.1-0.3-0.2-0.3-0.4
	c0-0.3,0.2-0.4,0.3-0.5C8.1,31.7,8.3,31.9,8.3,32.1z M75.1,32.3c-0.1,0.2-0.2,0.3-0.4,0.4s-0.3-0.1-0.5-0.2c-0.1-0.1-0.1-0.3,0-0.5
	C74.4,31.6,75.1,31.8,75.1,32.3z M77,32.4c-0.1,0.3-0.4,0.4-0.6,0.4c-0.2-0.1-0.5-0.3-0.3-0.6c0.1-0.1,0.1-0.2,0.3-0.2
	C76.7,31.9,77,32.2,77,32.4z M65.1,32.6c0.1,0.3-0.2,0.4-0.4,0.6c-0.2,0-0.3-0.1-0.5-0.2c-0.1-0.3,0.1-0.5,0.4-0.7
	C64.8,32.3,64.9,32.4,65.1,32.6z M58.1,32.9c0.1,0.1,0.1,0.2,0.1,0.3c-0.2,0.1-0.4,0.4-0.6,0.2c-0.2-0.1-0.3-0.3-0.3-0.5
	C57.4,32.7,58,32.6,58.1,32.9z M59.5,33.1c0,0.2,0,0.3-0.2,0.4c-0.2,0.2-0.4,0-0.6-0.1c-0.1-0.1-0.1-0.3,0-0.4s0.2-0.2,0.3-0.2
	C59.2,32.9,59.4,32.9,59.5,33.1z M16.6,33.1c0.2,0.2,0,0.3-0.1,0.5s-0.4,0.3-0.6,0.1c-0.2-0.1-0.2-0.4-0.2-0.6
	c0.2-0.1,0.2-0.2,0.4-0.2C16.4,32.9,16.5,33,16.6,33.1z M67.8,33.2c0.1,0.3-0.2,0.4-0.4,0.4c-0.3,0.1-0.5-0.1-0.6-0.3
	c0-0.2,0.1-0.2,0.2-0.4C67.3,32.8,67.6,33,67.8,33.2z M66.4,33.2c0.1,0.3-0.2,0.4-0.3,0.5c-0.2,0.1-0.4,0.1-0.6-0.1
	c-0.1-0.1-0.1-0.2-0.1-0.4c0.2-0.1,0.2-0.3,0.4-0.3C66.1,32.9,66.3,33,66.4,33.2z M77.8,33.5c0.1,0.4-0.4,0.2-0.6,0.3
	c-1.1,0.6-2.4,0.2-3.4-0.2c0.1-0.3,0.5-0.2,0.7-0.3C75.5,32.5,76.6,33.4,77.8,33.5z M8.6,33.2l-0.1,0.2C7.6,34,6.4,34.3,5.2,34
	l-0.1-0.2C6.1,33.1,7.3,33,8.6,33.2z M70.3,33.4c0,0.2-0.1,0.4-0.2,0.5c-0.2,0.1-0.6,0-0.7-0.3c-0.1-0.2,0.1-0.4,0.3-0.5
	C69.9,33.1,70.2,33.1,70.3,33.4z M13.1,33.5C13,33.7,13,33.9,12.8,34s-0.6-0.1-0.6-0.3c-0.1-0.3,0.1-0.4,0.2-0.5
	C12.8,33,13,33.3,13.1,33.5z M11.4,33.6c0.1,0.2-0.1,0.3-0.1,0.4c-0.1,0.2-0.4,0.1-0.5,0.1c-0.2-0.2-0.4-0.3-0.3-0.6l0.4-0.3
	C11.1,33.3,11.3,33.4,11.4,33.6z M72.1,34.2c0,0.2-0.2,0.4-0.4,0.5c-0.2,0-0.4-0.1-0.5-0.3s-0.1-0.4,0.1-0.5
	c0.1-0.1,0.2-0.1,0.3-0.1C71.9,33.8,72.1,34,72.1,34.2z M9.5,33.9c0.1,0.2-0.1,0.3-0.1,0.4l-0.5,1.1C8.4,36,7.7,36,7.1,36.2L7,36
	C7.6,35.1,8.4,34.3,9.5,33.9z M70.8,34.5c0.1,0.3-0.2,0.4-0.4,0.5c-0.2,0-0.4-0.1-0.5-0.3c-0.1-0.3,0.2-0.4,0.3-0.5
	C70.5,34.1,70.8,34.3,70.8,34.5z M12.4,34.5c0.1,0.4-0.1,0.5-0.3,0.6c-0.2,0-0.4-0.1-0.6-0.2c-0.1-0.2,0-0.5,0.2-0.6
	C12,34.2,12.3,34.2,12.4,34.5z M75.5,35.2l0.6-0.4c0.2-0.1,0.5,0.1,0.6,0.3c0.1,0.3-0.1,0.5-0.3,0.6c-0.2,0.1-0.6-0.2-0.5,0.2
	c0.2,0.1,0.3,0.3,0.4,0.5c-0.1,0.1-0.2,0.1-0.3,0c-0.7-0.3-1.5-0.8-1.8-1.6c-0.1-0.2-0.6-0.4-0.3-0.6C74.5,34.2,75.1,34.8,75.5,35.2
	L75.5,35.2z M77.9,34.5c0.1,0.1,0.1,0.4,0,0.5c-0.1,0.3-0.5,0.2-0.7,0.1C77.1,35,77,34.8,77,34.6c0.1-0.2,0.2-0.2,0.4-0.3
	C77.6,34.2,77.7,34.3,77.9,34.5z M68.7,35.8c0.2,0.3,0.5,0.7,0.6,1c-0.1,0.1-0.2,0.1-0.2,0.1c-0.9-0.5-2-1-2.3-2
	c-0.1-0.1-0.3-0.2-0.2-0.4c0.7-0.1,1.3,0.4,1.7,0.7C68.3,35.2,68.7,35.8,68.7,35.8z M11,34.9c0.1,0.2-0.1,0.4-0.2,0.5
	c-0.3,0.1-0.4-0.1-0.6-0.2c-0.2-0.3,0.2-0.5,0.4-0.6C10.7,34.5,10.8,34.7,11,34.9z M71.9,35.5c0,0.2-0.2,0.3-0.2,0.4
	c-0.2,0-0.4,0.1-0.6-0.1c-0.1-0.1-0.2-0.3,0-0.5C71.3,34.9,71.7,35.2,71.9,35.5z M78.2,35.8c0.1,0.3-0.2,0.5-0.4,0.6
	s-0.5-0.1-0.6-0.2c-0.1-0.2,0-0.3,0-0.5c0.2-0.2,0.4-0.3,0.7-0.2C77.9,35.5,78.2,35.8,78.2,35.8z M60.7,39.3c0,0.3-0.6,0.2-0.8,0.5
	c-0.8,0.4-1.7,0.4-2.7,0.4V40C58.2,39.2,59.5,39,60.7,39.3z M23.8,40.4c0,0.2-0.2,0.4-0.4,0.4S23,40.7,23,40.6
	c-0.1-0.3,0.2-0.4,0.3-0.6C23.6,40.1,23.8,40.2,23.8,40.4z M60.3,40.7c-0.1,0.2-0.1,0.5-0.4,0.6c-0.2,0.1-0.4-0.1-0.6-0.2
	c-0.1-0.1-0.1-0.3-0.1-0.4C59.4,40.2,60.1,40.2,60.3,40.7z M65.3,40.8c-0.6,0.4-1.3,0.9-2.2,0.9h-1.4l-0.1-0.1
	C62.4,40.6,64,40.6,65.3,40.8z M16.9,41.4c0,0.2-0.1,0.4-0.3,0.5c-0.2,0.1-0.4-0.1-0.5-0.2c-0.1-0.2,0-0.5,0.2-0.6
	C16.5,40.9,16.8,41.2,16.9,41.4z M18.2,41.7c0.1,0.1-0.1,0.2-0.1,0.3c-0.1,0.1-0.4,0.1-0.5,0c-0.2-0.1-0.2-0.3-0.2-0.4
	c0.1-0.2,0.2-0.1,0.3-0.2C17.9,41.4,18.1,41.5,18.2,41.7z M8.5,44.2c-0.2,0.3-0.7-0.1-0.9-0.2c-0.9-0.5-0.9-1.5-1.7-2.1
	c0.1-0.3,0.3,0,0.5,0c0.2,0.1,0.4,0.2,0.5,0.3C7.7,42.7,7.9,43.5,8.5,44.2z M82.2,34.4c-0.4-0.7-1.1-1-1.9-1c-0.7,0.1-1.1,0.5-1.4,1
	c-0.2,0.6,0.1,1.1,0.5,1.4c0.2,0.1,0.4,0.1,0.5-0.1c0.1-0.3-0.2-0.3-0.3-0.6c-0.1-0.4,0-0.7,0.3-0.9c0.2-0.3,0.7-0.1,1-0.1
	c0.3,0.2,0.6,0.4,0.8,0.7c0.2,0.4,0.2,0.9,0,1.3c-0.3,0.6-0.9,1.1-1.6,1.3C78,37.7,55,37.6,55,37.6c-2.7,0.3-5.8-0.5-8.1,0.9
	c-1.1,0.5-1.6,1.7-1.9,2.7c-0.7,0.6-1.4,1.3-2,2l-0.1-0.1l0.5-1.8c0.4-0.5,0.4-1.2,0.7-1.8c1-1.6,1.9-3.1,3.4-4.2
	c0.6-0.8,1.7-0.7,2.7-0.7c1,0.5,2.2,0.6,3.5,0.5c0.1-0.1,0.1-0.1,0.1-0.2l-1.3-0.8c-1-0.5-2,0.2-3,0.1c-0.1-0.1-0.1-0.1-0.1-0.2
	c1-0.7,2.1-1.2,3.1-1.7c0.9-0.5,1.8-0.7,2.8-1.1c0.4,0,0.7-0.3,1.1-0.1l1.3-0.4l0.2,0.1c1.1-0.4,2.6,0,3.9-0.1l0.2,0.2l1.2,0.3
	c0.5,0.1,0.7,0.6,1.1,0.6c0.2-0.4-0.3-0.5-0.4-0.7c0.6-0.1,1.2,0,1.7,0.3l-0.2,0.3c-0.1,0.3,0.1,0.5,0.3,0.6
	c0.2,0.1,0.3-0.1,0.4-0.1c0.3-0.2,0-0.5,0.1-0.7c1.9,0.3,3.7,0.8,5.4,1.5c0.5,0.2,0.9,0.5,1.5,0.5c-0.5-0.5-1.3-0.7-1.9-1l-1.4-0.6
	l0.3-0.2c0.9-0.1,1.6-0.7,2.2-1.4c0.1-0.2,0.3-0.1,0.3-0.3c-0.2-0.3-0.6,0.1-0.9,0.1l-2.6,1.7l-3.9-0.9c-0.6-0.1-1.3-0.2-1.9-0.4
	l-1.4-0.1h-2.6l-0.1-0.2l2.6-1l6.8-3.1c0.7-0.6,1.3-1.3,1.9-2.1c0-0.2-0.1-0.4-0.3-0.5c-0.2-0.1-0.4-0.1-0.5,0.1
	c-0.3,0.2,0,0.5,0,0.8c-0.3,0.4-0.8,0.8-1.2,1c-0.1,0-7,3.1-7,3.1c-1,0.4-2,0.9-3.1,1.1l-1.5,0.2c-0.1,0.3-0.4,0.5-0.6,0.6
	c-0.4,0.1-0.7,0.3-1.2,0.3c-3.3,1.3-6.7,2.6-9.3,5.2c0.2-0.3,0.2-0.7,0.2-1.1c-0.1-0.4,0-0.8-0.3-1.1c-0.1-0.1-0.2-0.5-0.2-0.7
	l-0.4,0.2c-0.2,0.6-0.4,1.6-0.2,2.2c0.1,0.5,0.5,1,0.1,1.4c-1.2,1.5-1.9,3.3-2.7,4.9c-0.3-0.1-0.5-0.3-0.6-0.6
	c0.9-1.1,1.5-2.3,1.8-3.7c0.2-0.1,0.1-0.5,0.2-0.6c-0.1-0.4,0.2-0.8,0-1.2c0.2-0.5-0.7-1.1-0.2-1.4L43,34.4
	c-1.1,1.4,0.6,3.6-0.7,4.9v0.1c-0.4,0.5-0.5,0.9-1,1.2c-0.6-0.2-0.8-0.9-1.2-1.5c-0.6-0.5-0.6-1.6-0.2-2.4c0.2-0.7-0.2-1.4-0.2-2
	l-0.2-0.2c-0.6,0.8-0.8,2-0.4,3c0.2,0.5,0.3,1.1,0.7,1.5c0.2,0.7,0.7,1.2,1.1,1.9c0.1,0.3-0.2,0.3-0.3,0.4l-0.5-0.8
	c-0.8-1.8-1.9-3.2-3.2-4.7c-0.1-0.2-0.3-0.4-0.2-0.7c0.5-0.5,0.6-1.3,0.3-1.9c-0.1-0.1-0.2-0.3-0.2-0.4l-0.4-0.3
	c0.1,0.9-0.5,1.7-0.3,2.6v0.1c-2.6-2-5.5-3.7-8.4-5.1l-0.2,0.6c0.7,0.2,2.7,1.4,2.7,1.4c0.9,0.3,1.7,0.9,2.5,1.3
	c3.4,1.9,5.7,5.1,7.3,8.6c0,0.3,0.3,0.6,0.1,0.9c-0.5-0.8-1.3-1.3-1.9-1.9c-0.2-1.2-0.9-2.3-1.9-2.8c-0.4-0.6-1.2-0.6-1.8-0.8
	l-9.2-0.1c-7.5-0.1-14.3,0.2-21.7,0.1c-1-0.1-2.3-0.5-2.6-1.6c-0.2-0.4-0.2-1,0-1.4c0.3-0.5,0.8-0.6,1.3-0.7
	c0.4,0.1,0.7,0.4,0.9,0.7c0,0.3-0.3,0.6-0.4,0.9c0,0.1,0.1,0.3,0.3,0.2c0.3-0.1,0.6-0.5,0.7-0.8c0-0.2,0.1-0.4-0.1-0.6
	c-0.2-0.5-0.7-0.9-1.2-1c-0.6-0.1-1.3,0.1-1.7,0.6c-0.6,0.5-0.6,1.4-0.4,2.1c0.4,1.1,1.6,1.9,2.7,2.1L27.7,38
	c2.4,0.1,5.1-0.3,7.5,0.2c0.9,0.3,1.8,0.9,2.1,1.9c0,0.1-0.1,0-0.2,0c-2-1.3-4.6-1.8-7.2-1.5c-1-0.1-1.9,0.3-2.8,0.6
	c-0.5,0.1-0.9-0.1-1.2-0.4C25,38,23.4,38,22.2,38.3v0.2c1.2-0.1,2,1,3.1,1.1c0.2,0.1,0.5-0.2,0.7,0c-1.2,0.6-2.3,1.2-3.5,1.6
	c-0.4-0.1-0.6-0.4-0.9-0.6c-0.5-0.5-1.4-0.3-2-0.4H19c0.2,0.4,0.7,0.6,1.1,0.8c0.6,0.3,1.4,0,1.9,0.4c-0.2,0.2-0.4,0.2-0.5,0.4
	c-1.2,0.5-2.2,1.5-3.5,1.5c-1.4,0.2-2.8-0.3-3.7-1.2c-0.4-1-1.4-1.5-2.5-1.5c-0.1,0.1-0.2,0.1-0.2,0.2c0.6,0.3,1,1,1.5,1.4
	c0.4,0.4,1,0,1.4,0.5c0.5,0.3,1.1,0.6,1.6,0.7c0.4,0.2,0.9,0.3,1.3,0.4l-0.2,0.1c-2.3,0.8-5,0.8-7.5,0.7c-0.8,0-1.5-0.2-2.2-0.2
	c0.1,0.2,0.4,0.3,0.6,0.4C7.9,44.9,7.7,45,7.4,45c-0.3,0.1-0.7,0.1-1,0.3c-0.4,0-0.8,0.1-1.1,0.2c-0.4,0.5-0.9,0.9-1.4,1.2
	c0,0.1,0,0.3,0.1,0.3l1.6-0.3c0.8-0.1,1.3-1,2-1.4c0.7-0.6,1.7-0.4,2.6-0.3c0.5,0.1-0.1,0.3,0.1,0.7c0.2,0.2,0.4,0.4,0.7,0.3
	c0.1-0.1,0.1-0.1,0.2-0.1c0.2-0.2,0.1-0.4,0-0.6c0.4-0.2,0.8,0,1.2-0.1c1,0,1.9-0.2,2.9-0.3c0.2,0,0.3-0.2,0.5,0
	c-0.1,0.2-0.3,0.2-0.2,0.5c0.1,0.2,0.3,0.3,0.5,0.4c0.2-0.1,0.5-0.3,0.4-0.6c-0.1-0.2-0.2-0.2-0.4-0.3c0.5-0.3,1.1-0.3,1.7-0.6
	c0.4-0.1,0.7-0.2,1.1-0.4c0.3,0,0.6-0.3,0.9-0.2c-0.1,0.4-0.3,0.8-0.5,1.2c-0.4,1.3-0.7,3.1,0,4.4c0.1,0,0.1,0,0.2-0.1
	c-0.5-1.3-0.2-2.9,0.2-4.2c0.4-2.2,2.6-2.8,4.2-3.6l0.1,0.1c-0.4,1.1-1.1,2.2-1,3.5c0.1,0.2-0.1,0.5,0,0.6c0.4-0.2,0.7-0.7,0.9-1.2
	c0.2-1.1-0.5-2.6,0.7-3.4c2.1-0.8,4-1.9,6.4-1.9c0.1,0.1,0.2-0.1,0.3,0.1c-0.5,0.6-1.2,1.1-1.5,1.8c-0.8,1.1-0.8,3-0.4,4.4
	c0.2,0.8-0.5,1.2-0.8,1.8c-0.2,0.2-0.2,0.6-0.3,0.8l0.5,0.1c0.4-0.5,0.8-1,0.9-1.7c0.1,0.3,0.3,0.5,0.5,0.5c0.2-0.3-0.2-0.5-0.2-0.8
	c0.4-0.2,0.6,0.3,0.9,0.4c0.5,0.1,1,0.4,1.5,0.4l0.2-0.2c-0.6-0.9-1.7-1-2.6-1.1c-0.5-0.8-0.5-1.9-0.5-2.9c0.1-0.5,0.2-1.1,0.5-1.6
	c0.1-0.4,0.5-0.7,0.7-1c0.5-0.4,1-0.7,1.6-0.9h0.1v0.1c-0.7,0.5-0.8,1.3-1.2,1.9c-0.4,0.6-0.6,1.5-0.2,2.2c0.2,0.3,0.1,0.8,0.4,1.1
	c0.3-0.5,0.4-1,0.5-1.6c-0.1-0.8-0.6-1.6-0.1-2.4c0.2-0.6,0.8-0.9,1.4-1.1c1.4-0.1,2.6,0.6,3.8,1.1c0.2,0.2,0.7,0.3,0.7,0.7
	c0,0.7-0.4,1.4-0.9,1.7c-0.7,0.4-1.7,0.5-2.3,0c-0.4-0.4-0.5-1-0.4-1.6c0.3-0.3,0.7-0.6,1.1-0.4c0.3,0.1,0.5,0.4,0.8,0.2
	c0.1-0.1,0.2-0.3,0.1-0.4c-0.3-0.2-0.4-0.5-0.8-0.6c-0.5-0.1-1.1-0.1-1.4,0.3c-0.5,0.5-0.7,1.2-0.6,1.8c0.2,0.8,0.8,1.4,1.6,1.6
	c1.2,0.3,2.4-0.1,3.1-1.1c0.3-0.3,0.4-0.7,0.6-1.1c1.2,0.7,2.1,2,2.6,3.4c0,0.4,0.1,0.9,0,1.3l0.9,0.1c-0.1-0.2,0-0.4,0.1-0.6
	c0.3-1.7,1.4-3.1,2.6-4.2c0.4-0.3,0.3,0.3,0.4,0.5c0.4,1,1.3,1.7,2.2,1.9c1.1,0.2,2.1-0.1,2.7-0.9c0.3-0.6,0.7-1.5,0.2-2.1
	c-0.4-0.4-0.8-0.7-1.4-0.7c-0.7,0-1.1,0.5-1.4,0.9c0,0.2,0,0.4,0.2,0.5c0.1,0,0.3,0,0.4-0.1c0.1-0.4,0.4-0.6,0.7-0.8s0.6,0,0.8,0.2
	c0.3,0.2,0.3,0.6,0.4,1c-0.1,0.5-0.4,1-0.8,1.2c-0.7,0.4-1.8,0.2-2.4-0.2c-0.3-0.3-0.5-0.7-0.7-1.1c-0.1-0.4-0.2-0.8,0-1.2
	c1.1-0.7,2.3-1.1,3.6-1.3c0.5,0.1,1,0.5,1.3,0.8c1.2,1.2-0.2,2.9,0.6,4.2c0.3-0.1,0.3-0.5,0.4-0.7c0.4-0.9-0.1-1.9-0.3-2.8
	c-0.3-0.6-0.5-1-1-1.5c0.1-0.1,0.2-0.1,0.3-0.1c0.5,0.4,1.1,0.8,1.5,1.3c0.7,1.2,1.1,2.6,1,4.2c-0.2,0.8-1,1.1-1.6,1.4
	c-0.2,0.2-0.6,0.5-0.7,0.8c0.3,0.2,0.7,0,1-0.1c0.5-0.2,0.8-0.8,1.1-1.1l0.1,0.2c0,0.3-0.1,0.7,0.1,0.7c0.1-0.4,0.2-0.9,0.2-1.3
	c0.3,0.4,0.4,0.8,0.5,1.3c0.2,0.5,0.6,1.1,1.2,1.1c0.2-0.2,0-0.5-0.1-0.7c-0.1-0.6-0.6-1-1-1.4c-0.9-1.2-0.5-3.1-1.2-4.5
	c-0.2-0.7-0.8-1.3-1.4-1.9l0.1-0.1c1.2,0,2.3,0.4,3.4,0.6c1.4,0.7,3.4,0.5,4.1,2.3c0.3,1,0.7,2,1.4,2.7l0.1-0.1
	c0.2-0.2,0.2-0.7,0-0.9c-0.2-1.3-1.3-1.6-1.8-2.6l0.1-0.1c0.6,0.2,1.2,0.3,1.8,0.6c2,0.6,3.4,2.5,3.7,4.6c0,1.6-0.3,3-0.9,4.4
	c-0.1,0.2-0.4,0.4-0.2,0.6c0.3-0.2,0.3-0.5,0.5-0.8c0.8-1.4,1.3-3.3,0.8-5.1c0-0.3-0.4-0.6-0.2-0.9c0.1,0.2,0.3,0.2,0.4,0.2
	c0.2-0.1,0.4-0.1,0.5-0.3c0-0.2,0.1-0.3,0-0.5c-0.2-0.2-0.5-0.2-0.7-0.2c-0.1,0.2-0.3,0.4-0.3,0.6c-0.2-0.4-0.5-1-0.9-1.3l0.1-0.1
	c1.1,0.4,2.2,0.9,3.3,1.2c0.2,0.2,0.5,0.3,0.9,0.3c1,0.4,2.1,0.5,3.1,0.8c0.8-0.1,1.4,0.3,2.1,0.1v-0.1c-0.3-0.4-0.9,0-1.2-0.3
	c-1.7-0.2-3.4-0.6-5-1.2c0-0.1,0.1-0.1,0.2-0.1c0.2-0.1,0.4-0.4,0.4-0.6c-0.1-0.2-0.3-0.3-0.6-0.3c-0.2,0.1-0.4,0.2-0.4,0.4
	s0.2,0.4,0.4,0.5c-0.1,0.1-0.2,0-0.2,0c-0.8-0.4-1.5-0.7-2.3-1c-0.3-0.1-0.5-0.3-0.8-0.3c-0.6-0.3-1.2-0.6-1.7-0.8
	c-1.6-0.8-3.4-1.3-5.1-1.9l-1.1-0.3l-1.9-0.5c-2.1-0.5-5-0.6-6.9,0.6c-0.3-0.1-0.5,0.4-0.6,0.1c0.5-1.4,2.1-1.9,3.5-1.9
	c10.1-0.1,19.6-0.2,29.6-0.3c1.2,0,2.3-0.4,2.9-1.5C82.4,36.1,82.5,35,82.2,34.4L82.2,34.4z M42,43.7c-0.1,0.3-0.3,0.6-0.3,0.9
	l-0.1,0.1l-0.2-1l-0.4-1c-0.2-0.4,0.2-0.6,0.4-0.9c0.4,0.2,0.5,0.5,0.7,0.8C42.3,43,42,43.3,42,43.7z M69.4,42.1
	c0,0.1,0.2,0.1,0.1,0.2c-0.9,0.8-2.1,1-3.4,1.1l-0.3,0.1c-0.1-0.1-0.1-0.1-0.1-0.2C66.6,42.3,68,41.8,69.4,42.1z M65.3,42.6
	c0.1,0.4-0.1,0.6-0.4,0.7c-0.3,0-0.4-0.2-0.6-0.4c-0.1-0.2,0.1-0.3,0.2-0.4C64.7,42.2,65.2,42.2,65.3,42.6z M17.3,42.6
	c0.1,0.2,0,0.4-0.1,0.5s-0.3,0.2-0.5,0.1c-0.2,0-0.3-0.2-0.3-0.4s0.1-0.4,0.3-0.5C16.9,42.4,17.1,42.4,17.3,42.6z M12.8,44.3v0.2
	c-0.6,0.1-1.2,0-1.6-0.4c-0.4-0.5-0.8-1-1.3-1.3c0-0.1-0.2-0.2,0-0.2C11.1,42.6,11.8,43.6,12.8,44.3z M73.2,42.6
	c-0.6,0.9-1.1,1.9-2.1,2.3c-0.2,0-0.3,0.3-0.5,0.1c0.4-1,1.3-2,2.2-2.4C73,42.6,73.1,42.5,73.2,42.6z M18.8,42.9
	c0,0.3-0.2,0.3-0.4,0.5c-0.2,0-0.3-0.1-0.4-0.3c-0.1-0.3,0.1-0.4,0.3-0.5C18.4,42.6,18.7,42.7,18.8,42.9z M76.4,43
	c-0.2,0.3-0.1,0.8-0.4,1.2c-0.5,0.6-0.9,1.2-1.7,1.4c-0.1-0.2,0.2-0.5,0.3-0.7C75,44.1,75.5,43.3,76.4,43z M4.9,43.3
	c0.1,0.2,0.2,0.4,0,0.6C4.8,44,4.5,44.1,4.3,44S4,43.6,4.1,43.4C4.3,43.1,4.8,43,4.9,43.3z M3.5,43.6c0,0.1,0.1,0.2,0.1,0.4
	c-0.1,0.1-0.2,0.3-0.4,0.3c-0.3,0.1-0.5-0.1-0.6-0.3c0-0.2,0.1-0.4,0.2-0.5C3.1,43.3,3.4,43.4,3.5,43.6z M6.5,43.7
	c0.1,0.2,0.1,0.6-0.2,0.6c-0.4,0.2-0.6-0.1-0.8-0.3c0-0.2,0.1-0.4,0.3-0.5C6.1,43.5,6.3,43.5,6.5,43.7z M10.6,44.1
	c0,0.2,0,0.4-0.2,0.5c-0.1,0.1-0.4,0.1-0.5,0.1c-0.1-0.2-0.3-0.3-0.2-0.5c0.1-0.1,0.2-0.2,0.4-0.3C10.3,43.9,10.5,43.8,10.6,44.1z
	 M78.9,44.2c-0.1,0.2-0.2,0.4-0.4,0.4s-0.5-0.1-0.6-0.3c-0.1-0.3,0.1-0.4,0.3-0.5C78.5,43.8,78.8,44,78.9,44.2z M74.2,44.4
	c0,0.2-0.2,0.4-0.3,0.4c-0.4,0.2-0.7-0.1-0.8-0.4c0.1-0.2,0.2-0.4,0.4-0.5C73.9,43.9,74.1,44.1,74.2,44.4z M77.4,44.3
	c0,0.2-0.1,0.4-0.2,0.4c-0.2,0.1-0.5,0.1-0.6-0.1c-0.2-0.2-0.1-0.4,0.1-0.5S77.3,44,77.4,44.3z M4.3,44.7C4.4,45,4.2,45.2,4,45.3
	c-0.2,0-0.5-0.1-0.6-0.4c0-0.2,0.1-0.5,0.2-0.5C3.9,44.4,4.1,44.6,4.3,44.7z M73,45c0.1,0.3-0.1,0.5-0.4,0.7
	c-0.2,0.1-0.3-0.1-0.5-0.2c-0.1-0.1-0.2-0.4,0-0.5C72.3,44.6,72.8,44.7,73,45z M17.9,45.3c0.1,0.3-0.2,0.3-0.3,0.5
	c-0.1,0.1-0.3,0.1-0.4,0c-0.1-0.2-0.3-0.3-0.2-0.5c0.1-0.1,0.2-0.2,0.3-0.2C17.6,44.9,17.7,45.1,17.9,45.3z M78.4,45.5
	c0.1,0.2-0.1,0.3-0.1,0.4c-0.2,0.1-0.4,0.2-0.6,0.1c-0.2-0.1-0.2-0.3-0.2-0.6c0.1-0.1,0.2-0.2,0.4-0.3C78,45.1,78.3,45.2,78.4,45.5z
	 M76.8,45.6c0.1,0.3-0.2,0.5-0.4,0.5c-0.1,0-0.2-0.1-0.3,0.1c0.7,0.3,1.1,0.9,1.6,1.3v0.2c-0.9,0-1.8-0.2-2.5-1
	c-0.2-0.1-0.5-0.1-0.7-0.3c0.3-0.3,0.9-0.2,1.4-0.2c0.3-0.4-0.4-0.6,0.1-0.9c0.2,0,0.2-0.2,0.5-0.1C76.6,45.3,76.7,45.4,76.8,45.6z
	 M66.5,45.6c0.1,0.1-0.1,0.3-0.1,0.4c-0.2,0.2-0.4,0.2-0.6,0.1c-0.1-0.2-0.3-0.3-0.2-0.6C65.8,45.1,66.4,45.2,66.5,45.6z M10,46.5
	c-0.1,0.2-0.2,0.4-0.4,0.4s-0.4-0.1-0.5-0.3c0-0.2,0.1-0.3,0.1-0.4C9.5,45.9,10,46.1,10,46.5z M12,46.1c0,0.4-0.4,0.6-0.5,0.9
	c-0.4,0.8-1.1,1.6-2,1.7c-0.1-0.2,0.3-0.5,0.4-0.7c0.4-0.9,1.2-1.3,1.9-1.9C11.8,46.1,12,46.1,12,46.1z M65.9,46.5
	c0,0.3-0.2,0.5-0.4,0.6c-0.2,0.1-0.4-0.1-0.5-0.2c-0.2-0.2-0.1-0.4,0-0.6C65.3,46,65.7,46.2,65.9,46.5z M67.5,46.7
	c0,0.3-0.2,0.5-0.5,0.6l-0.2-0.1c-0.2-0.1-0.3-0.3-0.3-0.5c0.1-0.1,0.2-0.3,0.4-0.4C67,46.3,67.4,46.4,67.5,46.7z M16,46.6
	c0,0.3-0.2,0.4-0.4,0.5c-0.2,0-0.4-0.1-0.5-0.3s0.2-0.4,0.3-0.5C15.7,46.3,15.8,46.5,16,46.6z M17.7,46.7c-0.1,0.2-0.2,0.4-0.5,0.4
	C17,47,16.8,47,16.7,46.8c0-0.3,0.2-0.4,0.4-0.5C17.4,46.4,17.6,46.5,17.7,46.7z M72.9,48.5c0.1,0.1,0.4,0.2,0.3,0.4
	c-0.4,0.2-0.7-0.3-1.1-0.4c-0.6-0.6-1.1-1.3-1.3-2c0.2-0.2,0.5,0.1,0.7,0.1C72,47.2,72.6,47.8,72.9,48.5z M73.8,46.7
	c0.1,0.2,0.1,0.4-0.1,0.6c-0.2,0.3-0.5,0.2-0.7,0.2c-0.1-0.2-0.4-0.4-0.2-0.6c0.1-0.2,0.3-0.3,0.5-0.3
	C73.5,46.5,73.6,46.7,73.8,46.7z M20,47.4c0,0.2,0.1,0.5-0.2,0.6c-0.2,0.1-0.5,0-0.6-0.3s0.1-0.4,0.3-0.5
	C19.7,47.2,19.9,47.3,20,47.4z M67.4,49.1c0.4,0.5,0.6,1.1,0.7,1.8c-0.1,0.2,0.1,0.4,0,0.5h-0.2c-1.1-0.8-1.4-2-1.8-3.1
	C66,48.2,66,48.1,66,48c0.2-0.2,0.4,0.2,0.7,0.3C66.7,48.3,67.4,49.1,67.4,49.1z M23.3,48.2c-1,0.8-2.4,1.2-3.6,0.5
	c0-0.1,0-0.2,0.1-0.2c0.7-0.2,1.4-0.6,2.2-0.5L23.3,48.2z M17.5,48.3c-0.9,0.5-1.6,1.6-2.7,1.8c-0.2,0.1-0.3,0.4-0.6,0.2
	c0.5-1.4,1.9-2.1,3.3-2.2V48.3z M65.9,49.5c0.1,0.2,0,0.5-0.2,0.5c-0.1,0.1-0.4,0.1-0.5,0C65,49.9,65,49.7,65,49.5
	c0.1-0.2,0.2-0.2,0.4-0.3C65.6,49.3,65.8,49.3,65.9,49.5z M63.8,49.6c-0.2,0.4-0.6,0.6-0.9,0.7c-0.9,0.3-1.6-0.1-2.4-0.3
	c0-0.2,0.3-0.1,0.4-0.2c0.8-0.2,1.7-0.4,2.6-0.1C63.5,49.5,63.7,49.5,63.8,49.6z M17.5,50.3c-0.1,0.1-0.1,0.3-0.3,0.4
	c-0.2,0.1-0.4,0-0.5-0.1c-0.1-0.2-0.2-0.3-0.1-0.5s0.2-0.2,0.4-0.3C17.3,49.9,17.5,50.1,17.5,50.3z M19,50.6
	c-0.1,0.2-0.2,0.4-0.4,0.5c-0.2,0.1-0.4-0.1-0.5-0.2c-0.1-0.2-0.2-0.3-0.1-0.5c0.1-0.1,0.2-0.2,0.4-0.2C18.7,50.1,18.9,50.4,19,50.6
	z M65.4,50.8c0,0.2-0.1,0.3-0.2,0.5s-0.4,0.2-0.6,0.1c-0.2,0-0.2-0.2-0.3-0.4c-0.2-0.2,0.1-0.3,0.2-0.5
	C64.8,50.3,65.3,50.4,65.4,50.8z M66.5,50.8c0,0.1,0.1,0.2,0.1,0.4c-0.2,0.1-0.2,0.5-0.6,0.3c-0.1,0.1-0.2-0.2-0.3-0.2
	c-0.1-0.3,0-0.6,0.3-0.7C66.2,50.5,66.4,50.7,66.5,50.8z M18.1,51.5c0.1,0.3-0.1,0.5-0.2,0.7c-0.3,0.1-0.6,0.1-0.7-0.3
	c0-0.2,0-0.6,0.3-0.7C17.7,51.2,18,51.2,18.1,51.5z M19.6,51.4c-0.1,0.7-0.2,1.6-0.9,2c-0.4,0.1-0.8,0.5-1.2,0.2v-0.1
	C18,52.7,18.9,52.1,19.6,51.4z M61.4,52c0.1,0.2-0.1,0.3-0.1,0.4c-0.1,0.2-0.4,0.1-0.6,0c-0.2-0.1-0.2-0.3-0.1-0.5s0.2-0.2,0.3-0.3
	C61.1,51.6,61.3,51.8,61.4,52z M22.1,53.2c0.4,0.6,0.2,1.4,0.4,2c-0.4,0.1-0.6-0.4-0.9-0.7c-0.6-0.8-0.5-1.8-0.7-2.7
	c0.1-0.1,0.1-0.1,0.2-0.1c0.4,0.2,0.7,0.7,1,1.1C21.9,53,22.1,53,22.1,53.2z M62.7,52.2c0,0.2-0.2,0.3-0.4,0.4
	c-0.2,0-0.3-0.1-0.5-0.2c-0.1-0.2,0.1-0.3,0.2-0.5C62.4,51.8,62.6,51.9,62.7,52.2z M65.7,54.5c0,0.1,0,0.2-0.2,0.2h-0.1
	c-0.7-0.7-1.5-1.4-1.4-2.4h0.2C64.9,52.8,65.7,53.4,65.7,54.5z M63.8,53.6c0,0.2-0.1,0.4-0.2,0.5c-0.3,0.1-0.7,0.1-0.8-0.3
	c0-0.3,0.3-0.4,0.4-0.5C63.5,53.2,63.7,53.4,63.8,53.6z M62.1,54.2c-0.4,0.9-1.3,1.4-2,2.1C60,56.2,60,56,60,55.9
	c0.2-1,1-1.9,1.9-2.3C62.5,53.7,62.1,54,62.1,54.2z M64,54.9c0,0.2-0.2,0.3-0.4,0.5c-0.2,0-0.4-0.1-0.6-0.3c0-0.3,0.2-0.3,0.3-0.5
	C63.7,54.6,63.9,54.7,64,54.9z M45.2,8.7c0.3,0,0.6,0.3,0.6,0.6s-0.3,0.6-0.6,0.6h-7.5c-0.3,0-0.6-0.3-0.6-0.6s0.3-0.6,0.6-0.6H45.2
	z M39.9,9.8c0.7,0,0-0.9-0.4-0.9h-0.6c-0.7,0,0,0.9,0.4,0.9H39.9z M43,9.8c0.7,0,0-0.9-0.4-0.9h-0.7c-0.7,0,0,0.9,0.4,0.9H43z
	 M45.3,8.9H45c-0.7,0-0.1,0.9,0.3,0.9C45.8,9.8,45.8,8.9,45.3,8.9z M44.6,17.3l1.4,0.5l1.4-0.5l-0.6,2.1l1.1-0.2l-0.4,1.3l0.4,1.2
	l-1-0.3l0.4,2.3l-1.4-0.5l-1.4,0.5l0.6-2.3L44,21.7l0.3-1.3L44,19.2l1.1,0.2L44.6,17.3z M46.7,21.1c0.3,0,0.4-0.4,0.4-0.8
	c0-0.9-0.7,0-1-0.8c-0.3,0.7-1,0.1-1,0.8c0,0.5,0,0.8,0.5,0.8H46.7z M45.3,20.4c0,0.3,0.4,0.1,0.8,0.1c0.3,0,0.8,0.2,0.8-0.1
	c0-0.5-0.4-0.3-0.8-0.3C45.7,20,45.3,19.9,45.3,20.4z M41.2,20.4v-0.2L41,20.1l0.2-0.2l-0.1-0.2h0.2l0.2-0.2l0.1,0.2h0.2l-0.1,0.2
	l0.2,0.2l-0.2,0.1v0.2l-0.2-0.1L41.2,20.4z M40.1,21.9v-0.3l-0.2-0.1l0.2-0.1L40,21.1l0.2,0.1l0.1-0.3l0.2,0.3l0.2-0.1l-0.1,0.3
	l0.2,0.1l-0.2,0.1v0.3l-0.3-0.2L40.1,21.9z M42,21.7v-0.3h-0.2l0.2-0.2L41.8,21h0.3l0.1-0.3l0.2,0.3h0.2l-0.1,0.2l0.2,0.2h-0.2v0.3
	l-0.3-0.2L42,21.7z M42.2,22.8v-0.2h-0.1l0.1-0.1l-0.1-0.2l0.2,0.1l0.1-0.2v0.2l0.2-0.1l-0.1,0.2l0.1,0.1h-0.1v0.2l-0.1-0.1
	L42.2,22.8z M40.5,24v-0.5l-0.4-0.1l0.3-0.3l-0.2-0.4l0.4,0.1l0.3-0.5l0.2,0.5l0.4-0.1l-0.2,0.4l0.4,0.3l-0.4,0.1V24l-0.4-0.3
	L40.5,24z M41.4,0l0.9,2.2l2.2-0.7l-1.1,2.1l1.9,1.3L43,5.3l0.1,2.4l-1.7-1.6l-1.8,1.6l0.2-2.4l-2.4-0.4l2-1.3l-1.2-2.1l2.3,0.7
	L41.4,0z M33.2,49c-0.3,0.1-0.4,0.2-0.3,0.5l0.3,1.3c0.1,0.2,0.1,0.6-0.1,0.9s-0.6,0.5-0.9,0.5c-0.2,0.1-0.7,0.1-1.1,0
	c-0.2-0.1-0.4-0.2-0.5-0.7l-0.3-1.4c-0.1-0.4-0.2-0.3-0.5-0.3v-0.1l1.7-0.4v0.1c-0.3,0.1-0.5,0.1-0.4,0.5l0.3,1.4
	c0.1,0.2,0.2,0.8,0.9,0.6c0.9-0.2,0.7-0.9,0.7-1.1l-0.3-1.3c-0.1-0.3-0.2-0.4-0.6-0.3v-0.1l1.1-0.3C33.2,48.8,33.2,49,33.2,49z
	 M35.7,49.3c-0.2-0.3-0.6-0.7-1.2-0.6c-0.3,0.1-0.5,0.2-0.4,0.5c0.1,0.2,0.2,0.3,0.6,0.4l0.8,0.1c0.2,0,0.6,0.2,0.7,0.7
	c0.1,0.4-0.1,1-1.1,1.2l-0.9,0.1c-0.1,0-0.1,0.1-0.1,0.2H34l-0.2-1h0.1c0.2,0.4,0.6,0.8,1.2,0.7c0.6-0.1,0.5-0.6,0.5-0.6
	c-0.1-0.3-0.3-0.3-0.7-0.4l-0.4-0.1c-0.9-0.2-1-0.5-1.1-0.7c-0.1-0.3,0-0.9,0.9-1.1c0.4-0.1,0.7,0,0.8,0s0.1-0.1,0.1-0.2h0.2
	C35.4,48.5,35.7,49.3,35.7,49.3z M39.1,51l-1.8,0.2v-0.1c0.4-0.1,0.5-0.1,0.5-0.4l-0.2-2.3c-0.4,0.1-0.9,0.1-0.9,0.8h-0.1l-0.1-0.9
	l3.1-0.3l0.1,0.9h-0.1c-0.2-0.7-0.7-0.7-1.1-0.6l0.2,2.3c0,0.4,0.2,0.4,0.5,0.4C39.2,51,39.1,51,39.1,51z M43.3,51h-1.1l-1-1.4h-0.1
	v0.8c0,0.3,0.1,0.4,0.4,0.4v0.1h-1.7v-0.1c0.4,0,0.5,0,0.5-0.4v-1.9c0-0.4-0.2-0.4-0.4-0.4V48h1.7c0.4,0,1.5,0.1,1.4,0.8
	c0,0.5-0.5,0.7-0.8,0.7l1,1.3c0.1,0.1,0.1,0.1,0.2,0.1C43.4,50.9,43.3,51,43.3,51z M41.1,49.5c0.7,0,0.9-0.1,1-0.6
	c0-0.4-0.2-0.6-0.6-0.6c-0.3,0-0.3,0-0.3,0.2C41.2,48.5,41.1,49.5,41.1,49.5z M46.7,51.4L45,51.2v-0.1c0.3,0,0.4,0,0.4-0.1
	s-0.1-0.5-0.2-0.6L44,50.3c-0.2,0.3-0.3,0.5-0.3,0.5c0,0.2,0.2,0.2,0.4,0.2v0.1l-1-0.1v-0.1c0.3,0,0.4-0.1,0.6-0.4l1.4-2.2h0.1
	l0.9,2.4C46.4,51.2,46.5,51.3,46.7,51.4z M45.3,50.2l-0.4-1.1l-0.6,1L45.3,50.2z M49.7,52l-2.9-0.5v-0.1c0.3,0,0.4,0,0.5-0.2
	l0.4-2.1c0.1-0.3-0.2-0.3-0.4-0.4v-0.1l1.8,0.3V49c-0.4-0.1-0.5-0.1-0.6,0.3l-0.4,2c0,0.2,0.1,0.3,0.4,0.3c0.8,0.1,1.1-0.2,1.4-0.6
	H50L49.7,52z M51.7,52.5l-1.8-0.4V52c0.3,0,0.5,0.1,0.5-0.2l0.4-2.1c0.1-0.3-0.2-0.3-0.4-0.4v-0.1l1.8,0.4v0.1
	c-0.2,0-0.5-0.1-0.5,0.2L51.3,52C51.2,52.3,51.4,52.3,51.7,52.5z M55.3,52.9l-1.7-0.2v-0.1c0.3,0,0.4,0,0.4-0.1s-0.1-0.5-0.2-0.6
	l-1.2-0.1c-0.2,0.3-0.3,0.5-0.3,0.5c0,0.2,0.2,0.2,0.4,0.2v0.1l-1-0.1v-0.1c0.3,0,0.4-0.1,0.5-0.5l1.4-2.2h0.1l0.9,2.4
	c0.2,0.5,0.2,0.6,0.5,0.7C55.1,52.8,55.3,52.9,55.3,52.9z M53.8,51.8l-0.4-1.1l-0.6,1L53.8,51.8z M42.1,18c0-1-0.6-0.1-0.9-0.9
	c-0.2,0.7-0.9,0.1-0.9,0.9c0,0.3,0.1,0.5,0.2,0.6v0.3c0,0.1,0.1,0.1,0.1,0.1h1.1c0.1,0,0.1-0.1,0.1-0.1v-0.3
	C42,18.5,42.1,18.3,42.1,18z M41.2,18.2c-0.3,0-0.7,0.2-0.7-0.1c0-0.5,0.3-0.4,0.7-0.4c0.3,0,0.8-0.1,0.8,0.4
	C41.9,18.4,41.5,18.2,41.2,18.2z M51.1,30.8c0.3,0,0.5-0.2,0.5-0.4S51.4,30,51.1,30s-0.5,0.2-0.5,0.4S50.9,30.8,51.1,30.8z
	 M48.9,15.4l-0.2,0.4c0,0.1,0.1,0.2,0.2,0.2s0.2-0.1,0.2-0.2L48.9,15.4z M33.6,15.4l-0.2,0.4c0,0.1,0.1,0.2,0.2,0.2s0.2-0.1,0.2-0.2
	L33.6,15.4z M37.4,15.4l-0.2,0.4c0,0.1,0.1,0.2,0.2,0.2s0.2-0.1,0.2-0.2C37.7,15.8,37.4,15.4,37.4,15.4z M41.2,15.4L41,15.8
	c0,0.1,0.1,0.2,0.2,0.2s0.2-0.1,0.2-0.2C41.5,15.8,41.2,15.4,41.2,15.4z M45.1,15.4l-0.2,0.4c0,0.1,0.1,0.2,0.2,0.2s0.2-0.1,0.2-0.2
	L45.1,15.4z M33.6,20.6l0.2,0.4c0,0.1-0.1,0.2-0.2,0.2s-0.2-0.1-0.2-0.2C33.4,21.1,33.6,20.6,33.6,20.6z M33.6,25.7l0.2,0.4
	c0,0.1-0.1,0.2-0.2,0.2s-0.2-0.1-0.2-0.2C33.4,26.2,33.6,25.7,33.6,25.7z M34.2,29.7l0.2,0.4c0,0.1-0.1,0.2-0.2,0.2S34,30.2,34,30.1
	C34,30.2,34.2,29.7,34.2,29.7z M37.4,31.9l0.2,0.4c0,0.1-0.1,0.2-0.2,0.2s-0.2-0.1-0.2-0.2L37.4,31.9z M49.1,20.6L48.9,21
	c0,0.1,0.1,0.2,0.2,0.2s0.2-0.1,0.2-0.2C49.3,21.1,49.1,20.6,49.1,20.6z M49.1,25.7l-0.2,0.4c0,0.1,0.1,0.2,0.2,0.2s0.2-0.1,0.2-0.2
	C49.3,26.2,49.1,25.7,49.1,25.7z M48.5,29.7l-0.2,0.4c0,0.1,0.1,0.2,0.2,0.2s0.2-0.1,0.2-0.2C48.7,30.2,48.5,29.7,48.5,29.7z
	 M45.3,31.9l-0.2,0.4c0,0.1,0.1,0.2,0.2,0.2s0.2-0.1,0.2-0.2L45.3,31.9z M41.4,34.2l-0.2,0.4c0,0.1,0.1,0.2,0.2,0.2s0.2-0.1,0.2-0.2
	L41.4,34.2z M47.6,26.6c0.1,0.1,0.2,0.1,0.3,0l0.1-0.4c0,0-0.2-0.2-0.3-0.2c-0.4,0.1-0.8,0.1-1.1,0.5c0,0.3,0.2,0.5,0.4,0.6
	c0.1-0.1,0.2,0.1,0.3,0.2c0,0.1-0.1,0.2-0.2,0.2c-0.3-0.3-0.8,0.1-1-0.3c0.1-0.4,0.3-0.8,0-1.1l0.1-0.2c-0.1-0.3-0.5-0.1-0.7-0.1
	c-0.4-0.1-0.7,0.1-0.9,0.4c0,0.1,0.1,0.2,0.2,0.4c0.1,0,0.1,0,0.2,0.1l-0.2,0.1c0.1,0.1,0.1,0.2,0.1,0.3c-0.2,0.1-0.3-0.2-0.4-0.3
	c0-0.2,0-0.5-0.2-0.6c-0.1,0-0.2,0.1-0.2,0.1C44,26.4,44,26.5,44,26.7l0.1,0.4c0,0,0.7,0.5,0.9,0.9c-0.2,0.4-0.2,1-0.7,1.3
	c-0.1,0.1-0.1,0.2-0.1,0.4l0.1,0.1c0.3-0.2,0.9-0.2,0.9-0.7c0.1-0.2,0.2-0.5,0.5-0.6c0.2-0.1,0.5,0.1,0.5,0.3
	c-0.1,0.4-0.3,0.6-0.6,0.7v0.2c0.1,0.2,0.4,0.1,0.5,0.1c0.4-0.3,0.6-0.7,0.9-0.9c0.1,0.2-0.5,0.3-0.1,0.6c0.2-0.1,0.5,0,0.7-0.3
	c-0.2-0.4,0.6-0.6,0.1-1l0.4-0.9c-0.1-0.4-0.6-0.4-0.7-0.7C47.2,26.5,47.4,26.5,47.6,26.6z M30,31c0.3,0,0.5-0.2,0.5-0.4
	s-0.2-0.4-0.5-0.4s-0.5,0.2-0.5,0.4C29.6,30.8,29.8,31,30,31z M5.3,45.4c0.3,0,0.5-0.2,0.5-0.4s-0.2-0.4-0.5-0.4S4.8,44.8,4.8,45
	S5,45.4,5.3,45.4z M50.2,14.8H32.6v13.5c0,1.4,0.6,2.6,1.4,2.9l6.8,4.3c0.1,0.2,0.4,0.3,0.6,0.3c0.2,0,0.4-0.1,0.5-0.2l6.9-4.4
	c0.8-0.4,1.4-1.6,1.4-2.9C50.2,28.3,50.2,14.8,50.2,14.8z M49.7,28.4c-0.1,1-0.4,1.9-1.1,2.3L42,34.9c-0.1,0.1-0.3,0.2-0.5,0.2
	S41.1,35,41,34.9l-6.6-4.2c-0.7-0.5-1-1.3-1.1-2.3V15.3h16.6C49.9,15.3,49.7,28.4,49.7,28.4z M43.7,34.4l0.2-0.1L43.7,34.4z
	 M30.4,52.8L28.7,53v-0.1c0.3-0.1,0.4-0.1,0.4-0.2s-0.2-0.4-0.3-0.5l-1.2,0.1c-0.1,0.3-0.2,0.5-0.2,0.6c0,0.2,0.3,0.1,0.4,0.1v0.1
	l-1,0.1v-0.1c0.3-0.1,0.3-0.2,0.4-0.6l0.9-2.5h0.1l1.4,2.1c0.3,0.4,0.4,0.6,0.6,0.5C30.2,52.6,30.4,52.8,30.4,52.8z M28.8,52l-0.6-1
	l-0.4,1.1L28.8,52z M59.6,46.5c-0.3-0.8-0.9-1.3-1.7-1.6c-0.8-0.2-1.7-0.1-2.2,0.6c-0.9,0.7-0.3,2-0.2,3c0,0.2,0,0.4-0.2,0.5
	c-3.7-0.3-7.1-1.2-10.7-1.6c-0.8-0.1-1.7-0.1-2.5-0.3l-1-0.1c-3.2,0.1-6.3,0.3-9.3,1c-0.6,0.2-1.3,0.2-2,0.5l-1.3,0.1l-0.8,0.2h-0.3
	l0.4-2.7c-0.3-0.6-1-1.1-1.7-1c-0.9-0.1-1.6,0.4-2,1c-0.6,1.3,0.2,2.6,0.4,3.8c-0.1,0.4,0.4,0.9,0,1.2c-0.8-0.6-1.9-0.9-2.9-0.6
	c-0.3,0.2-0.9-0.1-1,0.3c1.1,0.6,2.5,0.5,3.7,0.5c0.2-0.1,0.3-0.1,0.4,0c0.1,0.7-0.1,1.6,0.3,2.1c0.5,0.6,1.2,0.8,1.9,0.8
	c2.3-0.1,4.4-0.8,6.5-1.3l0.9-0.2c1.1-0.3,2.4-0.5,3.6-0.5c-0.5,0.7-0.8,1.5-1.1,2.3c-0.3,0.7,0.5,0.8,0.8,1.2
	c-0.8,0.2-1.3,0.8-2.1,1.1c-1.6-0.1-3,0.6-4.5,0.7c0,0.3,0.5,0.2,0.6,0.6c-0.1,0.2-0.3,0.3-0.5,0.4c0,0.2,0,0.2,0.2,0.2
	c0.2-0.2,0.5-0.1,0.6-0.2l1.4-0.2c0.4-0.2,0.9-0.2,1.3-0.5l1.4-0.7c0.8,0,1.4-0.3,2.1-0.3V57l-1.8,2.8c-0.1,0.2,0,0.4,0.2,0.4
	c0.4,0.1,0.7,0,1-0.2c0.5-0.9,1-1.8,1.4-2.7c0.2-0.9,0.8-1.3,1.4-1.9c0.1-0.1,0.2-0.2,0.4-0.1c-0.5,0.6-0.8,1.2-1.2,1.8
	c-0.2,0.7-0.3,1.6,0.4,2.2c0.3,0.3,0.8,0.2,1.2,0.2c1-0.5,2.2,0.3,3-0.7c0.5-0.1,0.5,0.5,0.8,0.7c0.4,0.1,0.9,0.6,1.3,0.2
	c0-0.3-0.3-0.5-0.5-0.8l-1-1.5c-0.1-0.4-0.4-0.6-0.4-0.9c0.5,0.2,0.9,0.5,1.4,0.5l1.4,0.4c0.3,0.4,0.8,0.7,1.3,1
	c0.6,0.3,1.3,0.4,2,0.6c0.2,0,0.6,0.2,0.8,0c-0.1-0.1-0.2-0.2-0.4-0.3c-0.1-0.3,0.5-0.2,0.6-0.4c-0.1-0.1-0.2-0.2-0.3-0.2
	c-0.4-0.2-1.3-0.3-1.5-0.4l-0.9-0.3c-1.5,0-2.4-1.4-3.6-1.9c0.3-0.3,0.7-0.5,0.9-0.8c0.2-0.4,0.3-0.9,0.1-1.3
	c-0.2-0.8-1.2-0.7-1.8-1.1l0.1-0.1c1-0.1,1.8,0.2,2.7,0.4c2.4,0.3,4.7,1.2,7.2,1.3c1.4,0,3.1,0.1,3.8-1.3l0.4-2.4
	C58.9,49.1,59.7,47.9,59.6,46.5z M32.3,58.1l-0.4-0.3l0.8-0.3c0.7-0.2,1.4-0.5,2.1-0.3C34.2,57.8,33.2,57.9,32.3,58.1z M48.1,57.7
	c0.6,0.3,1.8,0.5,2.7,0.6c-0.1,0.3-0.7,0-0.6,0.5c-0.8-0.3-1.7-0.5-2.3-1.1C47.9,57.7,48.1,57.7,48.1,57.7z M24.4,46.9
	c0.1-0.5,0.2-0.9,0.6-1.3c0.6-0.3,1.4-0.2,2,0.1c0.2,0.1,0.3,0.2,0.4,0.5c0.1,0.4-0.1,0.9-0.4,1.2h-0.2c0-0.4,0-0.8,0.2-1.2
	c0-0.3-0.3-0.3-0.5-0.5c-0.4-0.1-0.8,0.1-1.1,0.3c-0.2,0.3-0.5,0.7-0.3,1.1c0.2,0.3,0,0.7,0.1,1l-0.1,0.1
	C24.7,47.8,24.3,47.5,24.4,46.9z M25.6,47.6c0.4,0.3,0.9,0.2,1.4,0.2c0.1,0.3,0.1,0.6-0.1,0.9c-0.4-0.1-1-0.1-1.2-0.5
	C25.6,48.1,25.5,47.8,25.6,47.6z M25.5,46.7c0.1-0.2,0-0.5,0.3-0.6c0.2-0.1,0.5-0.1,0.5,0.2l-0.1,0.9C25.8,47.3,25.6,47,25.5,46.7z
	 M37.3,54.9c-0.1-0.9,0.2-1.7,0.8-2.3c0.4-0.1,0.8-0.2,1.1,0.1c-0.7,0.2-1.5,0.3-1.6,1.2c0,0.3-0.1,0.5,0.1,0.8
	c0.3,0.5,0.9,0.3,1.3,0.7c0,0.1-0.1,0.3-0.2,0.3C38.3,55.4,37.7,55.2,37.3,54.9z M36.4,56.7c0.6-0.3,1.2-0.8,1.9-0.6
	C37.9,56.5,37.1,56.6,36.4,56.7z M38.8,56.9l-1.2,2.4c-0.1,0.1-0.3,0.2-0.4,0.2c0-0.4,0.4-0.6,0.5-0.9c0.5-0.7,0.7-1.4,1.3-2.1
	C39,56.5,38.8,56.9,38.8,56.9z M39.5,55.5C39.5,55.4,39.4,55.4,39.5,55.5z M39.2,54.8L38,54.5c-0.2-0.3,0-0.5,0-0.8
	c0.4-0.6,1.4-0.8,1.8-0.3C39.8,53.9,39.6,54.4,39.2,54.8z M39.8,54.8c0.1-0.3,0.2-0.8,0.4-1.1C40.2,54,40,54.5,39.8,54.8z
	 M40.1,52.7c-0.3-0.1-0.5-0.5-0.9-0.5c0.3-0.1,0.6-0.1,1,0C40.3,52.4,40.1,52.6,40.1,52.7z M40.4,53.5v-0.3V53.5z M40.4,54.6
	c0-0.1,0.1-0.2,0.1-0.4c0.1-0.1,0.2,0.1,0.3,0.2C40.7,54.6,40.5,54.7,40.4,54.6z M40.8,53.1c0.1-0.4,0.1-0.7,0.4-0.9
	c0.2,0,0.5,0,0.7,0.1c0.1,0.5,0.7,1.2,0,1.6c-0.2,0.1-0.6,0.3-0.8,0.1C40.7,53.7,40.6,53.4,40.8,53.1z M42.6,52.3
	c-0.1-0.2,0.2-0.1,0.3-0.2l0.8,0.1C43.3,52.2,42.8,53.1,42.6,52.3z M43.9,52.7c-0.3,0.1-0.5,0.5-0.8,0.5
	C43.2,52.9,43.6,52.7,43.9,52.7z M42.9,55.8c0,0.1,0,0.1-0.1,0.2l-0.6-0.5C42.5,55.5,42.7,55.6,42.9,55.8z M42.2,55
	c0.1-0.1,0.2-0.1,0.2,0H42.2z M41.8,54.6c0.1-0.2,0.2-0.4,0.4-0.4c0,0,0,0.1,0.1,0.1C42.1,54.5,42,54.6,41.8,54.6z M41.2,54.6
	l0.1-0.2C41.4,54.5,41.3,54.5,41.2,54.6z M41.3,55.5c0.3-0.4,0.6,0.2,0.8,0.5c0.4,0.6,1.4,1.1,1,1.8l-1.8,0.4
	c-0.3,0-0.8,0.1-0.9-0.2C40.7,57.2,40.9,56.3,41.3,55.5z M40.6,56l0.1-0.2c-0.2,0.6-0.5,1.2-0.8,1.8C39.8,57.1,40.4,56.6,40.6,56z
	 M41.7,59.1c-0.5,0-1.2,0.3-1.7-0.1l-0.2-0.5c0.4-0.2,0.8,0.3,1.1,0c0.6,0,1.2-0.1,1.8,0.1c0.3,0.1,0.7-0.5,0.8,0.1
	C43.3,59.4,42.3,58.8,41.7,59.1z M43.3,57c0,0.3,0.3,0.4,0.1,0.6C43.4,57.5,43.3,57.3,43.3,57z M44.1,58.5c-0.2,0-0.2-0.3-0.2-0.4
	C44,58.2,44.1,58.4,44.1,58.5z M45.3,59.1c0,0.1-0.2,0.1-0.2,0c-0.8-1-1.1-2-1.6-3.1h0.1C44.2,57.1,44.7,58.2,45.3,59.1z M46.3,56.8
	C46.2,56.8,46.2,56.9,46.3,56.8c-0.8,0.1-1.3-0.3-1.9-0.7V56C45.1,56,45.6,56.5,46.3,56.8z M45.6,53.4c0.3,0.1,0.3,0.4,0.4,0.7
	c0,0.6-0.3,1-0.9,1.2c-0.3,0.2-0.7,0.2-1,0.1c0.6,0,1.3-0.2,1.5-0.9V53.4z M45,53.3c0.1,0.4,0.4,0.7,0.2,1.1
	C45,54.9,44.4,54.9,44,55c-0.2,0-0.4-0.1-0.6-0.2c0-0.1,0-0.2-0.1-0.2c0.1-0.3-0.6-0.7-0.1-0.9C43.7,53.3,44.6,52.4,45,53.3z
	 M57.9,51.5c-0.2,0.2,0,0.7-0.3,0.9c0,0.5-0.4,0.7-0.7,0.9c-3,0.7-6-0.4-8.9-0.9c-4.1-0.9-8.8-1.1-13-0.2c-1.9,0.4-3.8,0.8-5.7,1.3
	c-1.2,0.2-2.4,0.3-3.5,0c-0.9-0.4-0.5-1.6-0.8-2.4c0.1-0.6-0.2-1.1-0.2-1.8c-0.1-0.2-0.1-0.5-0.1-0.7l1.2,0.4c2.1,0.4,4-0.3,6-0.6
	c1.9-0.4,3.8-0.7,5.8-0.9c2.3,0,4.6-0.2,6.8,0.2l2,0.2c1.4,0.2,2.7,0.6,4.2,0.7c0.2,0.1,0.5,0.1,0.8,0.1c2.3,0.4,4.8,1,7,0
	C58.4,49.7,58,50.6,57.9,51.5z M57.2,48.4c0,0.4-0.4,0.3-0.6,0.5H56c-0.1-0.2-0.1-0.5-0.1-0.7C56.3,48.2,56.8,48.2,57.2,48.4z
	 M56.9,47.7c0.3-0.3-0.1-1.9,0.7-0.8c0,0.2,0,0.5-0.2,0.7C57.3,47.6,57.1,47.8,56.9,47.7z M58.9,47.5c-0.2,0.5-0.6,0.8-1.1,0.9
	c0-0.6,0.6-1,0.4-1.7c-0.3-0.5-1-0.6-1.6-0.5c-0.2,0.2-0.1,0.4-0.2,0.6l-0.1,0.8c-0.5,0-0.5-0.5-0.7-0.8c0-0.5,0.3-1.1,0.8-1.3
	c0.4-0.2,1.1-0.2,1.5,0.1c0.3,0.1,0.7,0.2,0.8,0.5C59.1,46.4,59,47,58.9,47.5z"/>
<g class="st1">
	<path d="M97.6,26.8h-3.7l-0.4,1c-0.1,0.3-0.2,0.6-0.2,0.9c0,0.3,0.1,0.5,0.4,0.7c0.1,0.1,0.5,0.1,1,0.2v0.3h-3.5v-0.3
		c0.4-0.1,0.7-0.2,0.9-0.5c0.2-0.3,0.5-0.8,0.9-1.6l3.8-8.5h0.1l3.8,8.7c0.4,0.8,0.7,1.3,0.9,1.6c0.2,0.2,0.4,0.3,0.8,0.3v0.3h-5.1
		v-0.3h0.2c0.4,0,0.7-0.1,0.9-0.2c0.1-0.1,0.2-0.2,0.2-0.4c0-0.1,0-0.2,0-0.3c0,0-0.1-0.2-0.2-0.6L97.6,26.8z M97.4,26.2l-1.6-3.6
		l-1.6,3.6H97.4z"/>
	<path d="M110.1,22.5v5.7c0,0.6,0.1,0.9,0.2,1c0.1,0.1,0.3,0.2,0.6,0.3v0.3h-3v-1c-0.3,0.4-0.7,0.7-1,0.9c-0.3,0.2-0.7,0.3-1.2,0.3
		c-0.4,0-0.8-0.1-1.1-0.4s-0.5-0.5-0.6-0.9s-0.2-0.9-0.2-1.8v-2.9c0-0.6-0.1-0.9-0.2-1s-0.3-0.2-0.6-0.3v-0.3h3v5c0,0.5,0,0.9,0.1,1
		c0,0.2,0.1,0.3,0.2,0.3c0.1,0.1,0.2,0.1,0.4,0.1c0.2,0,0.4,0,0.5-0.1c0.2-0.1,0.5-0.4,0.8-0.8v-3.9c0-0.6-0.1-0.9-0.2-1
		s-0.3-0.2-0.6-0.3v-0.3H110.1z"/>
	<path d="M116.6,22.3l0.1,2.5h-0.3c-0.3-0.7-0.6-1.2-1-1.5c-0.3-0.3-0.7-0.4-1-0.4c-0.2,0-0.4,0.1-0.5,0.2c-0.2,0.1-0.2,0.3-0.2,0.5
		c0,0.1,0.1,0.3,0.2,0.4c0.2,0.2,0.6,0.6,1.4,1.1s1.3,1,1.5,1.3s0.4,0.8,0.4,1.2c0,0.4-0.1,0.8-0.3,1.2s-0.5,0.7-0.9,0.9
		c-0.4,0.2-0.8,0.3-1.2,0.3c-0.3,0-0.8-0.1-1.4-0.3c-0.2-0.1-0.3-0.1-0.3-0.1c-0.2,0-0.3,0.1-0.4,0.4h-0.3l-0.1-2.6h0.3
		c0.2,0.7,0.6,1.2,1,1.5c0.4,0.3,0.8,0.5,1.2,0.5c0.2,0,0.5-0.1,0.6-0.2c0.2-0.2,0.2-0.3,0.2-0.6c0-0.2-0.1-0.5-0.2-0.6
		s-0.5-0.5-1-0.8c-0.8-0.6-1.3-1-1.5-1.3c-0.3-0.4-0.5-0.9-0.5-1.4c0-0.6,0.2-1.1,0.6-1.5c0.4-0.5,0.9-0.7,1.7-0.7
		c0.4,0,0.8,0.1,1.1,0.3c0.1,0.1,0.3,0.1,0.3,0.1c0.1,0,0.2,0,0.2-0.1c0.1,0,0.1-0.1,0.3-0.3H116.6z"/>
	<path d="M121.1,19.8v2.7h1.7v0.8h-1.7v4.5c0,0.4,0,0.7,0.1,0.8s0.1,0.2,0.2,0.3c0.1,0.1,0.2,0.1,0.3,0.1c0.3,0,0.7-0.3,1-0.8
		l0.2,0.2c-0.4,1-1.1,1.5-2.1,1.5c-0.5,0-0.9-0.1-1.2-0.4s-0.5-0.5-0.6-0.9c-0.1-0.2-0.1-0.7-0.1-1.4v-3.9h-1V23
		c0.7-0.5,1.2-1,1.7-1.5s0.9-1.1,1.2-1.7H121.1z"/>
	<path d="M126.5,22.5v1.7c0.5-0.8,0.9-1.3,1.3-1.5c0.4-0.2,0.7-0.4,1.1-0.4c0.3,0,0.5,0.1,0.7,0.3c0.2,0.2,0.3,0.4,0.3,0.8
		c0,0.3-0.1,0.6-0.3,0.8c-0.2,0.2-0.4,0.3-0.6,0.3c-0.3,0-0.5-0.1-0.7-0.3s-0.3-0.3-0.4-0.3c-0.1,0-0.1,0-0.2,0
		c-0.2,0-0.3,0.1-0.4,0.2c-0.2,0.2-0.4,0.4-0.5,0.8c-0.2,0.5-0.2,1.1-0.2,1.7v1.7l0,0.4c0,0.3,0,0.5,0.1,0.6
		c0.1,0.1,0.2,0.2,0.3,0.3c0.1,0.1,0.3,0.1,0.6,0.1v0.3h-3.9v-0.3c0.3,0,0.5-0.1,0.6-0.3c0.1-0.1,0.2-0.5,0.2-1.2v-4
		c0-0.4,0-0.7-0.1-0.8c-0.1-0.1-0.1-0.3-0.2-0.3c-0.1-0.1-0.3-0.1-0.5-0.1v-0.3H126.5z"/>
	<path d="M134.6,28.7c-0.9,0.8-1.7,1.2-2.4,1.2c-0.4,0-0.8-0.1-1-0.4c-0.3-0.3-0.4-0.6-0.4-1c0-0.6,0.2-1.1,0.7-1.5
		c0.5-0.4,1.5-1,3.1-1.8v-0.7c0-0.6,0-0.9-0.1-1c-0.1-0.1-0.2-0.3-0.3-0.4c-0.2-0.1-0.4-0.2-0.6-0.2c-0.3,0-0.6,0.1-0.8,0.2
		c-0.1,0.1-0.2,0.2-0.2,0.3c0,0.1,0.1,0.2,0.2,0.4c0.2,0.2,0.3,0.4,0.3,0.6c0,0.3-0.1,0.5-0.3,0.7c-0.2,0.2-0.4,0.3-0.7,0.3
		c-0.3,0-0.6-0.1-0.8-0.3c-0.2-0.2-0.3-0.4-0.3-0.7c0-0.4,0.1-0.7,0.4-1.1s0.7-0.6,1.2-0.8s1.1-0.3,1.7-0.3c0.7,0,1.2,0.1,1.6,0.4
		c0.4,0.3,0.7,0.6,0.8,1c0.1,0.2,0.1,0.7,0.1,1.5V28c0,0.3,0,0.5,0,0.6c0,0.1,0.1,0.1,0.1,0.2c0.1,0,0.1,0.1,0.2,0.1
		c0.1,0,0.3-0.1,0.4-0.3l0.2,0.2c-0.3,0.4-0.5,0.7-0.8,0.8c-0.3,0.2-0.6,0.3-0.9,0.3c-0.4,0-0.7-0.1-1-0.3S134.7,29.1,134.6,28.7z
		 M134.6,28.2v-2.4c-0.6,0.4-1.1,0.8-1.4,1.2c-0.2,0.3-0.3,0.6-0.3,0.9c0,0.2,0.1,0.5,0.3,0.6c0.1,0.1,0.3,0.2,0.5,0.2
		C134,28.6,134.3,28.4,134.6,28.2z"/>
	<path d="M141.5,19.2v9.1c0,0.5,0.1,0.8,0.2,1c0.1,0.1,0.4,0.2,0.7,0.2v0.3h-3.9v-0.3c0.3,0,0.6-0.1,0.7-0.3c0.1-0.1,0.2-0.4,0.2-1
		v-7.6c0-0.5-0.1-0.8-0.2-1c-0.1-0.1-0.4-0.2-0.7-0.2v-0.3H141.5z"/>
	<path d="M145.9,22.5v5.8c0,0.5,0.1,0.8,0.2,1c0.1,0.1,0.4,0.2,0.7,0.2v0.3h-3.9v-0.3c0.3,0,0.6-0.1,0.7-0.3c0.1-0.1,0.2-0.4,0.2-1
		V24c0-0.5-0.1-0.8-0.2-1c-0.1-0.1-0.4-0.2-0.7-0.2v-0.3H145.9z M144.8,19c0.3,0,0.6,0.1,0.9,0.4s0.4,0.5,0.4,0.9s-0.1,0.6-0.4,0.9
		c-0.2,0.2-0.5,0.4-0.9,0.4c-0.3,0-0.6-0.1-0.9-0.4s-0.4-0.5-0.4-0.9s0.1-0.6,0.4-0.9S144.5,19,144.8,19z"/>
	<path d="M151.5,28.7c-0.9,0.8-1.7,1.2-2.4,1.2c-0.4,0-0.8-0.1-1-0.4c-0.3-0.3-0.4-0.6-0.4-1c0-0.6,0.2-1.1,0.7-1.5
		c0.5-0.4,1.5-1,3.1-1.8v-0.7c0-0.6,0-0.9-0.1-1c-0.1-0.1-0.2-0.3-0.3-0.4c-0.2-0.1-0.4-0.2-0.6-0.2c-0.3,0-0.6,0.1-0.8,0.2
		c-0.1,0.1-0.2,0.2-0.2,0.3c0,0.1,0.1,0.2,0.2,0.4c0.2,0.2,0.3,0.4,0.3,0.6c0,0.3-0.1,0.5-0.3,0.7c-0.2,0.2-0.4,0.3-0.7,0.3
		c-0.3,0-0.6-0.1-0.8-0.3c-0.2-0.2-0.3-0.4-0.3-0.7c0-0.4,0.1-0.7,0.4-1.1s0.7-0.6,1.2-0.8s1.1-0.3,1.7-0.3c0.7,0,1.2,0.1,1.6,0.4
		c0.4,0.3,0.7,0.6,0.8,1c0.1,0.2,0.1,0.7,0.1,1.5V28c0,0.3,0,0.5,0,0.6c0,0.1,0.1,0.1,0.1,0.2c0.1,0,0.1,0.1,0.2,0.1
		c0.1,0,0.3-0.1,0.4-0.3l0.2,0.2c-0.3,0.4-0.5,0.7-0.8,0.8c-0.3,0.2-0.6,0.3-0.9,0.3c-0.4,0-0.7-0.1-1-0.3S151.6,29.1,151.5,28.7z
		 M151.5,28.2v-2.4c-0.6,0.4-1.1,0.8-1.4,1.2c-0.2,0.3-0.3,0.6-0.3,0.9c0,0.2,0.1,0.5,0.3,0.6c0.1,0.1,0.3,0.2,0.5,0.2
		C150.9,28.6,151.2,28.4,151.5,28.2z"/>
	<path d="M158.5,22.5v0.9c0.4-0.4,0.7-0.7,1.1-0.9s0.7-0.3,1.1-0.3c0.5,0,0.9,0.1,1.2,0.4s0.5,0.6,0.6,1c0.1,0.3,0.1,0.9,0.1,1.7
		v2.8c0,0.6,0.1,0.9,0.2,1.1s0.3,0.2,0.6,0.3v0.3h-3.7v-0.3c0.3,0,0.5-0.2,0.6-0.3c0.1-0.1,0.1-0.5,0.1-1V25c0-0.6,0-1-0.1-1.1
		s-0.1-0.3-0.2-0.4c-0.1-0.1-0.2-0.1-0.4-0.1c-0.4,0-0.9,0.3-1.2,1v3.9c0,0.5,0.1,0.9,0.2,1s0.3,0.2,0.6,0.3v0.3h-3.7v-0.3
		c0.3,0,0.5-0.1,0.7-0.3c0.1-0.1,0.1-0.5,0.1-1v-4.1c0-0.6-0.1-0.9-0.2-1s-0.3-0.2-0.6-0.3v-0.3H158.5z"/>
	<path d="M178.9,19v3.7h-0.3c-0.3-1-0.9-1.8-1.6-2.3c-0.7-0.5-1.5-0.8-2.3-0.8c-0.8,0-1.5,0.2-2,0.7c-0.5,0.4-0.9,1.1-1.1,1.9
		s-0.3,1.6-0.3,2.5c0,1,0.1,1.9,0.4,2.7c0.2,0.8,0.6,1.3,1.2,1.7c0.5,0.4,1.2,0.5,1.9,0.5c0.3,0,0.5,0,0.8-0.1
		c0.3-0.1,0.5-0.1,0.8-0.2v-2.2c0-0.4,0-0.7-0.1-0.8c-0.1-0.1-0.2-0.2-0.4-0.3s-0.4-0.1-0.7-0.1H175v-0.3h5.1v0.3
		c-0.4,0-0.7,0.1-0.8,0.2c-0.2,0.1-0.3,0.2-0.4,0.4c0,0.1-0.1,0.3-0.1,0.7v2.2c-0.7,0.3-1.4,0.5-2.1,0.7c-0.7,0.2-1.5,0.2-2.3,0.2
		c-1,0-1.8-0.1-2.5-0.4s-1.2-0.6-1.8-1.1s-0.9-0.9-1.2-1.5c-0.4-0.7-0.5-1.5-0.5-2.4c0-1.6,0.6-2.9,1.7-4c1.1-1.1,2.5-1.6,4.2-1.6
		c0.5,0,1,0,1.4,0.1c0.2,0,0.6,0.2,1.1,0.4c0.5,0.2,0.8,0.3,0.9,0.3c0.1,0,0.3-0.1,0.4-0.2s0.2-0.3,0.3-0.6H178.9z"/>
	<path d="M184.3,22.3c0.6,0,1.2,0.2,1.8,0.5s1,0.8,1.2,1.4c0.3,0.6,0.4,1.3,0.4,2c0,1-0.3,1.9-0.8,2.6c-0.6,0.8-1.5,1.3-2.6,1.3
		c-1.1,0-1.9-0.4-2.5-1.2s-0.9-1.7-0.9-2.7c0-1,0.3-2,0.9-2.7C182.4,22.7,183.2,22.3,184.3,22.3z M184.3,22.8
		c-0.3,0-0.5,0.1-0.7,0.3c-0.2,0.2-0.3,0.6-0.4,1.2c-0.1,0.6-0.1,1.4-0.1,2.5c0,0.6,0,1.1,0.1,1.6c0.1,0.4,0.2,0.7,0.4,0.8
		s0.4,0.3,0.6,0.3c0.2,0,0.4-0.1,0.6-0.2c0.2-0.2,0.3-0.4,0.4-0.7c0.1-0.5,0.2-1.5,0.2-3c0-0.9,0-1.5-0.1-1.8
		c-0.1-0.3-0.2-0.6-0.4-0.7C184.7,22.9,184.5,22.8,184.3,22.8z"/>
	<path d="M192.1,30l-2.5-5.7c-0.3-0.7-0.5-1.1-0.7-1.3c-0.1-0.1-0.3-0.2-0.5-0.3v-0.3h3.9v0.3c-0.2,0-0.4,0-0.5,0.1
		c-0.1,0.1-0.2,0.2-0.2,0.4c0,0.2,0.1,0.6,0.3,1.1l1.2,2.7l1-2.4c0.3-0.7,0.4-1.2,0.4-1.4c0-0.2-0.1-0.3-0.2-0.4s-0.3-0.2-0.6-0.2
		v-0.3h2.4v0.3c-0.2,0-0.4,0.1-0.6,0.3c-0.1,0.1-0.4,0.6-0.7,1.2l-2.4,5.7H192.1z"/>
	<path d="M203,25.9h-4c0,1,0.3,1.7,0.8,2.3c0.4,0.4,0.8,0.6,1.3,0.6c0.3,0,0.6-0.1,0.9-0.3c0.3-0.2,0.5-0.5,0.8-0.9l0.3,0.2
		c-0.4,0.8-0.8,1.4-1.3,1.7c-0.5,0.3-1,0.5-1.7,0.5c-1.1,0-1.9-0.4-2.5-1.2c-0.4-0.7-0.7-1.5-0.7-2.5c0-1.2,0.3-2.2,1-2.9
		c0.7-0.7,1.4-1.1,2.3-1.1c0.7,0,1.4,0.3,1.9,0.9C202.7,23.8,203,24.7,203,25.9z M201.1,25.4c0-0.8,0-1.4-0.1-1.7
		c-0.1-0.3-0.2-0.5-0.4-0.7c-0.1-0.1-0.3-0.1-0.4-0.1c-0.3,0-0.5,0.1-0.7,0.4c-0.3,0.5-0.5,1.1-0.5,1.9v0.3H201.1z"/>
	<path d="M207,22.5v1.7c0.5-0.8,0.9-1.3,1.3-1.5c0.4-0.2,0.7-0.4,1.1-0.4c0.3,0,0.5,0.1,0.7,0.3c0.2,0.2,0.3,0.4,0.3,0.8
		c0,0.3-0.1,0.6-0.3,0.8c-0.2,0.2-0.4,0.3-0.6,0.3c-0.3,0-0.5-0.1-0.7-0.3s-0.3-0.3-0.4-0.3c-0.1,0-0.1,0-0.2,0
		c-0.2,0-0.3,0.1-0.4,0.2c-0.2,0.2-0.4,0.4-0.5,0.8c-0.2,0.5-0.2,1.1-0.2,1.7v1.7l0,0.4c0,0.3,0,0.5,0.1,0.6
		c0.1,0.1,0.2,0.2,0.3,0.3c0.1,0.1,0.3,0.1,0.6,0.1v0.3H204v-0.3c0.3,0,0.5-0.1,0.6-0.3c0.1-0.1,0.2-0.5,0.2-1.2v-4
		c0-0.4,0-0.7-0.1-0.8c-0.1-0.1-0.1-0.3-0.2-0.3c-0.1-0.1-0.3-0.1-0.5-0.1v-0.3H207z"/>
	<path d="M214,22.5v0.9c0.4-0.4,0.7-0.7,1.1-0.9s0.7-0.3,1.1-0.3c0.5,0,0.9,0.1,1.2,0.4s0.5,0.6,0.6,1c0.1,0.3,0.1,0.9,0.1,1.7v2.8
		c0,0.6,0.1,0.9,0.2,1.1s0.3,0.2,0.6,0.3v0.3h-3.7v-0.3c0.3,0,0.5-0.2,0.6-0.3c0.1-0.1,0.1-0.5,0.1-1V25c0-0.6,0-1-0.1-1.1
		s-0.1-0.3-0.2-0.4c-0.1-0.1-0.2-0.1-0.4-0.1c-0.4,0-0.9,0.3-1.2,1v3.9c0,0.5,0.1,0.9,0.2,1s0.3,0.2,0.6,0.3v0.3h-3.7v-0.3
		c0.3,0,0.5-0.1,0.7-0.3c0.1-0.1,0.1-0.5,0.1-1v-4.1c0-0.6-0.1-0.9-0.2-1s-0.3-0.2-0.6-0.3v-0.3H214z"/>
	<path d="M223,22.5v1c0.4-0.4,0.8-0.7,1.1-0.9s0.7-0.3,1.1-0.3c0.5,0,0.9,0.1,1.2,0.3s0.6,0.6,0.7,1c0.4-0.5,0.8-0.8,1.2-1
		s0.8-0.3,1.2-0.3c0.5,0,0.9,0.1,1.2,0.3s0.5,0.5,0.6,0.9s0.2,0.9,0.2,1.7v3c0,0.6,0.1,0.9,0.2,1s0.3,0.2,0.6,0.3v0.3h-3.8v-0.3
		c0.3,0,0.5-0.1,0.7-0.3c0.1-0.1,0.1-0.5,0.1-1v-3.1c0-0.7,0-1.1-0.1-1.2s-0.1-0.3-0.2-0.4s-0.2-0.1-0.4-0.1c-0.2,0-0.5,0.1-0.7,0.2
		s-0.5,0.4-0.7,0.7v3.9c0,0.5,0,0.9,0.1,1c0.1,0.2,0.3,0.3,0.7,0.3v0.3h-3.8v-0.3c0.2,0,0.4-0.1,0.5-0.2s0.2-0.2,0.2-0.3
		s0.1-0.4,0.1-0.8v-3.1c0-0.7,0-1.1-0.1-1.2s-0.1-0.3-0.3-0.4s-0.3-0.1-0.4-0.1c-0.2,0-0.4,0.1-0.6,0.2c-0.2,0.2-0.5,0.4-0.8,0.8
		v3.9c0,0.5,0.1,0.9,0.2,1s0.3,0.3,0.6,0.3v0.3H220v-0.3c0.3,0,0.5-0.1,0.7-0.3c0.1-0.1,0.1-0.5,0.1-1v-4.1c0-0.6-0.1-0.9-0.2-1
		s-0.3-0.2-0.6-0.3v-0.3H223z"/>
	<path d="M239.5,25.9h-4c0,1,0.3,1.7,0.8,2.3c0.4,0.4,0.8,0.6,1.3,0.6c0.3,0,0.6-0.1,0.9-0.3s0.5-0.5,0.8-0.9l0.3,0.2
		c-0.4,0.8-0.8,1.4-1.3,1.7s-1,0.5-1.7,0.5c-1.1,0-1.9-0.4-2.5-1.2c-0.4-0.7-0.7-1.5-0.7-2.5c0-1.2,0.3-2.2,1-2.9s1.4-1.1,2.3-1.1
		c0.7,0,1.4,0.3,1.9,0.9S239.4,24.7,239.5,25.9z M237.5,25.4c0-0.8,0-1.4-0.1-1.7s-0.2-0.5-0.4-0.7c-0.1-0.1-0.3-0.1-0.4-0.1
		c-0.3,0-0.5,0.1-0.7,0.4c-0.3,0.5-0.5,1.1-0.5,1.9v0.3H237.5z"/>
	<path d="M243.4,22.5v0.9c0.4-0.4,0.7-0.7,1.1-0.9s0.7-0.3,1.1-0.3c0.5,0,0.9,0.1,1.2,0.4s0.5,0.6,0.6,1c0.1,0.3,0.1,0.9,0.1,1.7
		v2.8c0,0.6,0.1,0.9,0.2,1.1s0.3,0.2,0.6,0.3v0.3h-3.7v-0.3c0.3,0,0.5-0.2,0.6-0.3c0.1-0.1,0.1-0.5,0.1-1V25c0-0.6,0-1-0.1-1.1
		s-0.1-0.3-0.2-0.4s-0.2-0.1-0.4-0.1c-0.4,0-0.9,0.3-1.2,1v3.9c0,0.5,0.1,0.9,0.2,1s0.3,0.2,0.6,0.3v0.3h-3.7v-0.3
		c0.3,0,0.5-0.1,0.7-0.3c0.1-0.1,0.1-0.5,0.1-1v-4.1c0-0.6-0.1-0.9-0.2-1s-0.3-0.2-0.6-0.3v-0.3H243.4z"/>
	<path d="M252.2,19.8v2.7h1.7v0.8h-1.7v4.5c0,0.4,0,0.7,0.1,0.8s0.1,0.2,0.2,0.3s0.2,0.1,0.3,0.1c0.3,0,0.7-0.3,1-0.8l0.2,0.2
		c-0.4,1-1.1,1.5-2.1,1.5c-0.5,0-0.9-0.1-1.2-0.4s-0.5-0.5-0.6-0.9c-0.1-0.2-0.1-0.7-0.1-1.4v-3.9h-1V23c0.7-0.5,1.2-1,1.7-1.5
		s0.9-1.1,1.2-1.7H252.2z"/>
</g>
<g class="st1">
	<path d="M91.1,57.1v-0.3h0.4c0.3,0,0.5,0,0.7-0.1s0.3-0.2,0.4-0.4c0-0.1,0.1-0.4,0.1-1v-7c0-0.5,0-0.9-0.1-1
		c-0.1-0.1-0.2-0.3-0.3-0.4c-0.2-0.1-0.4-0.2-0.7-0.2h-0.4v-0.3h4.7c1.3,0,2.3,0.2,3.1,0.5c0.9,0.4,1.7,1.1,2.1,1.9
		c0.5,0.9,0.7,1.8,0.7,2.9c0,0.7-0.1,1.4-0.4,2.1c-0.2,0.6-0.5,1.1-0.9,1.6c-0.4,0.4-0.8,0.7-1.3,1c-0.5,0.2-1.1,0.4-1.8,0.6
		c-0.3,0.1-0.8,0.1-1.5,0.1H91.1z M95.1,47.1v8.3c0,0.4,0,0.7,0.1,0.8c0,0.1,0.1,0.2,0.2,0.2c0.1,0.1,0.3,0.1,0.6,0.1
		c0.9,0,1.5-0.3,2-0.9c0.6-0.8,0.9-2,0.9-3.7c0-1.4-0.2-2.4-0.6-3.3c-0.3-0.6-0.8-1.1-1.3-1.3C96.6,47.2,96,47.1,95.1,47.1z"/>
	<path d="M109.1,53.2h-4c0,1,0.3,1.7,0.8,2.3c0.4,0.4,0.8,0.6,1.3,0.6c0.3,0,0.6-0.1,0.9-0.3c0.3-0.2,0.5-0.5,0.8-0.9l0.3,0.2
		c-0.4,0.8-0.8,1.4-1.3,1.7c-0.5,0.3-1,0.5-1.7,0.5c-1.1,0-1.9-0.4-2.5-1.2c-0.4-0.7-0.7-1.5-0.7-2.5c0-1.2,0.3-2.2,1-2.9
		c0.7-0.7,1.4-1.1,2.3-1.1c0.7,0,1.4,0.3,1.9,0.9C108.8,51.1,109.1,52,109.1,53.2z M107.2,52.6c0-0.8,0-1.4-0.1-1.7
		c-0.1-0.3-0.2-0.5-0.4-0.7c-0.1-0.1-0.3-0.1-0.4-0.1c-0.3,0-0.5,0.1-0.7,0.4c-0.3,0.5-0.5,1.1-0.5,1.9v0.3H107.2z"/>
	<path d="M112.9,56.3v2.7c0,0.4,0,0.6,0.1,0.8c0.1,0.1,0.2,0.2,0.3,0.3s0.4,0.1,0.7,0.1v0.3h-4.2v-0.3c0.3,0,0.6-0.1,0.7-0.3
		c0.1-0.1,0.2-0.4,0.2-0.9v-7.7c0-0.5-0.1-0.8-0.2-1c-0.1-0.1-0.4-0.2-0.7-0.2v-0.3h3.1v1c0.3-0.4,0.5-0.6,0.8-0.8
		c0.4-0.2,0.8-0.4,1.2-0.4c0.5,0,1,0.2,1.5,0.5c0.4,0.3,0.8,0.8,1,1.4c0.2,0.6,0.3,1.2,0.3,1.9c0,0.7-0.1,1.4-0.4,2
		c-0.2,0.6-0.6,1.1-1,1.4c-0.5,0.3-1,0.5-1.5,0.5c-0.4,0-0.8-0.1-1.1-0.3C113.4,56.9,113.2,56.7,112.9,56.3z M112.9,55.5
		c0.4,0.6,0.9,1,1.4,1c0.3,0,0.5-0.1,0.7-0.4c0.3-0.4,0.4-1.3,0.4-2.5c0-1.3-0.1-2.1-0.4-2.6c-0.2-0.3-0.5-0.5-0.8-0.5
		c-0.5,0-1,0.4-1.3,1.1V55.5z"/>
	<path d="M123,56c-0.9,0.8-1.7,1.2-2.4,1.2c-0.4,0-0.8-0.1-1-0.4c-0.3-0.3-0.4-0.6-0.4-1c0-0.6,0.2-1.1,0.7-1.5
		c0.5-0.4,1.5-1,3.1-1.8v-0.7c0-0.6,0-0.9-0.1-1c-0.1-0.1-0.2-0.3-0.3-0.4c-0.2-0.1-0.4-0.2-0.6-0.2c-0.3,0-0.6,0.1-0.8,0.2
		c-0.1,0.1-0.2,0.2-0.2,0.3c0,0.1,0.1,0.2,0.2,0.4c0.2,0.2,0.3,0.4,0.3,0.6c0,0.3-0.1,0.5-0.3,0.7c-0.2,0.2-0.4,0.3-0.7,0.3
		c-0.3,0-0.6-0.1-0.8-0.3c-0.2-0.2-0.3-0.4-0.3-0.7c0-0.4,0.1-0.7,0.4-1.1s0.7-0.6,1.2-0.8s1.1-0.3,1.7-0.3c0.7,0,1.2,0.1,1.6,0.4
		c0.4,0.3,0.7,0.6,0.8,1c0.1,0.2,0.1,0.7,0.1,1.5v2.8c0,0.3,0,0.5,0,0.6c0,0.1,0.1,0.1,0.1,0.2c0.1,0,0.1,0.1,0.2,0.1
		c0.1,0,0.3-0.1,0.4-0.3l0.2,0.2c-0.3,0.4-0.5,0.7-0.8,0.8c-0.3,0.2-0.6,0.3-0.9,0.3c-0.4,0-0.7-0.1-1-0.3S123,56.4,123,56z
		 M123,55.4V53c-0.6,0.4-1.1,0.8-1.4,1.2c-0.2,0.3-0.3,0.6-0.3,0.9c0,0.2,0.1,0.5,0.3,0.6c0.1,0.1,0.3,0.2,0.5,0.2
		C122.3,55.9,122.6,55.7,123,55.4z"/>
	<path d="M130,49.8v1.7c0.5-0.8,0.9-1.3,1.3-1.5c0.4-0.2,0.7-0.4,1.1-0.4c0.3,0,0.5,0.1,0.7,0.3c0.2,0.2,0.3,0.4,0.3,0.8
		c0,0.3-0.1,0.6-0.3,0.8c-0.2,0.2-0.4,0.3-0.6,0.3c-0.3,0-0.5-0.1-0.7-0.3s-0.3-0.3-0.4-0.3c-0.1,0-0.1,0-0.2,0
		c-0.2,0-0.3,0.1-0.4,0.2c-0.2,0.2-0.4,0.4-0.5,0.8c-0.2,0.5-0.2,1.1-0.2,1.7v1.7l0,0.4c0,0.3,0,0.5,0.1,0.6
		c0.1,0.1,0.2,0.2,0.3,0.3c0.1,0.1,0.3,0.1,0.6,0.1v0.3H127v-0.3c0.3,0,0.5-0.1,0.6-0.3c0.1-0.1,0.2-0.5,0.2-1.2v-4
		c0-0.4,0-0.7-0.1-0.8c-0.1-0.1-0.1-0.3-0.2-0.3c-0.1-0.1-0.3-0.1-0.5-0.1v-0.3H130z"/>
	<path d="M136.9,47.1v2.7h1.7v0.8h-1.7v4.5c0,0.4,0,0.7,0.1,0.8s0.1,0.2,0.2,0.3c0.1,0.1,0.2,0.1,0.3,0.1c0.3,0,0.7-0.3,1-0.8
		l0.2,0.2c-0.4,1-1.1,1.5-2.1,1.5c-0.5,0-0.9-0.1-1.2-0.4s-0.5-0.5-0.6-0.9c-0.1-0.2-0.1-0.7-0.1-1.4v-3.9h-1v-0.3
		c0.7-0.5,1.2-1,1.7-1.5s0.9-1.1,1.2-1.7H136.9z"/>
	<path d="M142.4,49.8v1c0.4-0.4,0.8-0.7,1.1-0.9c0.3-0.2,0.7-0.3,1.1-0.3c0.5,0,0.9,0.1,1.2,0.3c0.3,0.2,0.6,0.6,0.7,1
		c0.4-0.5,0.8-0.8,1.2-1s0.8-0.3,1.2-0.3c0.5,0,0.9,0.1,1.2,0.3c0.3,0.2,0.5,0.5,0.6,0.9s0.2,0.9,0.2,1.7v3c0,0.6,0.1,0.9,0.2,1
		s0.3,0.2,0.6,0.3v0.3H148v-0.3c0.3,0,0.5-0.1,0.7-0.3c0.1-0.1,0.1-0.5,0.1-1v-3.1c0-0.7,0-1.1-0.1-1.2c-0.1-0.2-0.1-0.3-0.2-0.4
		c-0.1-0.1-0.2-0.1-0.4-0.1c-0.2,0-0.5,0.1-0.7,0.2c-0.2,0.2-0.5,0.4-0.7,0.7v3.9c0,0.5,0,0.9,0.1,1c0.1,0.2,0.3,0.3,0.7,0.3v0.3
		h-3.8v-0.3c0.2,0,0.4-0.1,0.5-0.2s0.2-0.2,0.2-0.3s0.1-0.4,0.1-0.8v-3.1c0-0.7,0-1.1-0.1-1.2c-0.1-0.2-0.1-0.3-0.3-0.4
		c-0.1-0.1-0.3-0.1-0.4-0.1c-0.2,0-0.4,0.1-0.6,0.2c-0.2,0.2-0.5,0.4-0.8,0.8v3.9c0,0.5,0.1,0.9,0.2,1s0.3,0.3,0.6,0.3v0.3h-3.8
		v-0.3c0.3,0,0.5-0.1,0.7-0.3c0.1-0.1,0.1-0.5,0.1-1v-4.1c0-0.6-0.1-0.9-0.2-1s-0.3-0.2-0.6-0.3v-0.3H142.4z"/>
	<path d="M158.9,53.2h-4c0,1,0.3,1.7,0.8,2.3c0.4,0.4,0.8,0.6,1.3,0.6c0.3,0,0.6-0.1,0.9-0.3c0.3-0.2,0.5-0.5,0.8-0.9l0.3,0.2
		c-0.4,0.8-0.8,1.4-1.3,1.7c-0.5,0.3-1,0.5-1.7,0.5c-1.1,0-1.9-0.4-2.5-1.2c-0.4-0.7-0.7-1.5-0.7-2.5c0-1.2,0.3-2.2,1-2.9
		c0.7-0.7,1.4-1.1,2.3-1.1c0.7,0,1.4,0.3,1.9,0.9C158.6,51.1,158.8,52,158.9,53.2z M157,52.6c0-0.8,0-1.4-0.1-1.7
		c-0.1-0.3-0.2-0.5-0.4-0.7c-0.1-0.1-0.3-0.1-0.4-0.1c-0.3,0-0.5,0.1-0.7,0.4c-0.3,0.5-0.5,1.1-0.5,1.9v0.3H157z"/>
	<path d="M162.8,49.8v0.9c0.4-0.4,0.7-0.7,1.1-0.9s0.7-0.3,1.1-0.3c0.5,0,0.9,0.1,1.2,0.4s0.5,0.6,0.6,1c0.1,0.3,0.1,0.9,0.1,1.7
		v2.8c0,0.6,0.1,0.9,0.2,1.1s0.3,0.2,0.6,0.3v0.3H164v-0.3c0.3,0,0.5-0.2,0.6-0.3c0.1-0.1,0.1-0.5,0.1-1v-3.2c0-0.6,0-1-0.1-1.1
		s-0.1-0.3-0.2-0.4c-0.1-0.1-0.2-0.1-0.4-0.1c-0.4,0-0.9,0.3-1.2,1v3.9c0,0.5,0.1,0.9,0.2,1s0.3,0.2,0.6,0.3v0.3h-3.7v-0.3
		c0.3,0,0.5-0.1,0.7-0.3c0.1-0.1,0.1-0.5,0.1-1v-4.1c0-0.6-0.1-0.9-0.2-1s-0.3-0.2-0.6-0.3v-0.3H162.8z"/>
	<path d="M171.6,47.1v2.7h1.7v0.8h-1.7v4.5c0,0.4,0,0.7,0.1,0.8s0.1,0.2,0.2,0.3c0.1,0.1,0.2,0.1,0.3,0.1c0.3,0,0.7-0.3,1-0.8
		l0.2,0.2c-0.4,1-1.1,1.5-2.1,1.5c-0.5,0-0.9-0.1-1.2-0.4s-0.5-0.5-0.6-0.9c-0.1-0.2-0.1-0.7-0.1-1.4v-3.9h-1v-0.3
		c0.7-0.5,1.2-1,1.7-1.5s0.9-1.1,1.2-1.7H171.6z"/>
	<path d="M181.5,49.6c0.6,0,1.2,0.2,1.8,0.5s1,0.8,1.2,1.4c0.3,0.6,0.4,1.3,0.4,2c0,1-0.3,1.9-0.8,2.6c-0.6,0.8-1.5,1.3-2.6,1.3
		c-1.1,0-1.9-0.4-2.5-1.2s-0.9-1.7-0.9-2.7c0-1,0.3-2,0.9-2.7C179.6,49.9,180.4,49.6,181.5,49.6z M181.5,50.1
		c-0.3,0-0.5,0.1-0.7,0.3c-0.2,0.2-0.3,0.6-0.4,1.2c-0.1,0.6-0.1,1.4-0.1,2.5c0,0.6,0,1.1,0.1,1.6c0.1,0.4,0.2,0.7,0.4,0.8
		s0.4,0.3,0.6,0.3c0.2,0,0.4-0.1,0.6-0.2c0.2-0.2,0.3-0.4,0.4-0.7c0.1-0.5,0.2-1.5,0.2-3c0-0.9,0-1.5-0.1-1.8
		c-0.1-0.3-0.2-0.6-0.4-0.7C181.9,50.2,181.7,50.1,181.5,50.1z"/>
	<path d="M189.2,50.5v5.1c0,0.5,0.1,0.8,0.2,0.9c0.2,0.2,0.5,0.3,0.9,0.3v0.3H186v-0.3c0.3,0,0.6,0,0.7-0.1c0.1-0.1,0.2-0.2,0.3-0.3
		c0.1-0.1,0.1-0.4,0.1-0.8v-5.1H186v-0.8h1.1v-0.5l0-0.4c0-0.8,0.3-1.4,0.8-1.9c0.5-0.5,1.3-0.8,2.2-0.8c0.6,0,1.1,0.1,1.4,0.4
		c0.3,0.2,0.5,0.5,0.5,0.8c0,0.2-0.1,0.4-0.3,0.6c-0.2,0.2-0.4,0.3-0.8,0.3c-0.3,0-0.5-0.1-0.6-0.2c-0.2-0.1-0.2-0.3-0.2-0.5
		c0,0,0-0.1,0-0.3c0-0.1,0-0.2,0-0.2c0-0.1,0-0.2-0.1-0.2c-0.1-0.1-0.2-0.1-0.3-0.1c-0.2,0-0.3,0.1-0.4,0.2s-0.2,0.3-0.2,0.6l0,1.4
		v0.9h1.1v0.8H189.2z"/>
	<path d="M200.7,56.8v0.3h-5.5v-0.3h0.4c0.3,0,0.6-0.1,0.7-0.2c0.1-0.1,0.2-0.2,0.3-0.4c0.1-0.1,0.1-0.5,0.1-1v-7c0-0.5,0-0.9-0.1-1
		c-0.1-0.1-0.2-0.3-0.3-0.4c-0.2-0.1-0.4-0.2-0.7-0.2h-0.4v-0.3h5.5v0.3h-0.4c-0.3,0-0.6,0.1-0.7,0.2c-0.1,0.1-0.2,0.2-0.3,0.4
		c-0.1,0.1-0.1,0.5-0.1,1v7c0,0.5,0,0.9,0.1,1c0.1,0.1,0.2,0.3,0.4,0.4c0.2,0.1,0.4,0.2,0.7,0.2H200.7z"/>
	<path d="M204.6,49.8v1c0.4-0.4,0.8-0.7,1.1-0.9c0.3-0.2,0.7-0.3,1.1-0.3c0.5,0,0.9,0.1,1.2,0.3c0.3,0.2,0.6,0.6,0.7,1
		c0.4-0.5,0.8-0.8,1.2-1s0.8-0.3,1.2-0.3c0.5,0,0.9,0.1,1.2,0.3c0.3,0.2,0.5,0.5,0.6,0.9s0.2,0.9,0.2,1.7v3c0,0.6,0.1,0.9,0.2,1
		s0.3,0.2,0.6,0.3v0.3h-3.8v-0.3c0.3,0,0.5-0.1,0.7-0.3c0.1-0.1,0.1-0.5,0.1-1v-3.1c0-0.7,0-1.1-0.1-1.2c-0.1-0.2-0.1-0.3-0.2-0.4
		c-0.1-0.1-0.2-0.1-0.4-0.1c-0.2,0-0.5,0.1-0.7,0.2c-0.2,0.2-0.5,0.4-0.7,0.7v3.9c0,0.5,0,0.9,0.1,1c0.1,0.2,0.3,0.3,0.7,0.3v0.3
		h-3.8v-0.3c0.2,0,0.4-0.1,0.5-0.2s0.2-0.2,0.2-0.3s0.1-0.4,0.1-0.8v-3.1c0-0.7,0-1.1-0.1-1.2c-0.1-0.2-0.1-0.3-0.3-0.4
		c-0.1-0.1-0.3-0.1-0.4-0.1c-0.2,0-0.4,0.1-0.6,0.2c-0.2,0.2-0.5,0.4-0.8,0.8v3.9c0,0.5,0.1,0.9,0.2,1s0.3,0.3,0.6,0.3v0.3h-3.8
		v-0.3c0.3,0,0.5-0.1,0.7-0.3c0.1-0.1,0.1-0.5,0.1-1v-4.1c0-0.6-0.1-0.9-0.2-1s-0.3-0.2-0.6-0.3v-0.3H204.6z"/>
	<path d="M217.9,49.8v1c0.4-0.4,0.8-0.7,1.1-0.9c0.3-0.2,0.7-0.3,1.1-0.3c0.5,0,0.9,0.1,1.2,0.3s0.6,0.6,0.7,1
		c0.4-0.5,0.8-0.8,1.2-1s0.8-0.3,1.2-0.3c0.5,0,0.9,0.1,1.2,0.3s0.5,0.5,0.6,0.9s0.2,0.9,0.2,1.7v3c0,0.6,0.1,0.9,0.2,1
		s0.3,0.2,0.6,0.3v0.3h-3.8v-0.3c0.3,0,0.5-0.1,0.7-0.3c0.1-0.1,0.1-0.5,0.1-1v-3.1c0-0.7,0-1.1-0.1-1.2s-0.1-0.3-0.2-0.4
		s-0.2-0.1-0.4-0.1c-0.2,0-0.5,0.1-0.7,0.2s-0.5,0.4-0.7,0.7v3.9c0,0.5,0,0.9,0.1,1c0.1,0.2,0.3,0.3,0.7,0.3v0.3h-3.8v-0.3
		c0.2,0,0.4-0.1,0.5-0.2s0.2-0.2,0.2-0.3c0-0.1,0.1-0.4,0.1-0.8v-3.1c0-0.7,0-1.1-0.1-1.2c-0.1-0.2-0.1-0.3-0.3-0.4
		c-0.1-0.1-0.3-0.1-0.4-0.1c-0.2,0-0.4,0.1-0.6,0.2c-0.2,0.2-0.5,0.4-0.8,0.8v3.9c0,0.5,0.1,0.9,0.2,1s0.3,0.3,0.6,0.3v0.3H215v-0.3
		c0.3,0,0.5-0.1,0.7-0.3c0.1-0.1,0.1-0.5,0.1-1v-4.1c0-0.6-0.1-0.9-0.2-1s-0.3-0.2-0.6-0.3v-0.3H217.9z"/>
	<path d="M231.1,49.8v5.8c0,0.5,0.1,0.8,0.2,1s0.4,0.2,0.7,0.2v0.3H228v-0.3c0.3,0,0.6-0.1,0.7-0.3c0.1-0.1,0.2-0.4,0.2-1v-4.3
		c0-0.5-0.1-0.8-0.2-1s-0.4-0.2-0.7-0.2v-0.3H231.1z M230,46.2c0.3,0,0.6,0.1,0.9,0.4s0.4,0.5,0.4,0.9s-0.1,0.6-0.4,0.9
		s-0.5,0.4-0.9,0.4s-0.6-0.1-0.9-0.4s-0.4-0.5-0.4-0.9s0.1-0.6,0.4-0.9S229.7,46.2,230,46.2z"/>
	<path d="M237.4,49.9h2.5v0.9h-1.4c0.3,0.3,0.4,0.5,0.5,0.7c0.1,0.3,0.2,0.6,0.2,0.9c0,0.5-0.1,1-0.4,1.4s-0.7,0.7-1.2,0.9
		s-0.9,0.3-1.3,0.3c0,0-0.3,0-0.9,0c-0.2,0-0.4,0.1-0.6,0.2s-0.2,0.3-0.2,0.6c0,0.2,0.1,0.3,0.2,0.5s0.4,0.2,0.7,0.2l1.4,0
		c1.1,0,1.8,0.1,2.3,0.4c0.6,0.3,0.9,0.8,0.9,1.5c0,0.4-0.1,0.8-0.4,1.2s-0.6,0.6-1.1,0.8c-0.7,0.3-1.4,0.4-2.3,0.4
		c-0.7,0-1.3-0.1-1.8-0.2s-0.9-0.3-1.2-0.5s-0.4-0.5-0.4-0.7c0-0.2,0.1-0.5,0.3-0.6s0.5-0.4,1-0.5c-0.7-0.3-1-0.8-1-1.4
		c0-0.4,0.1-0.7,0.4-1s0.7-0.6,1.3-0.9c-0.7-0.3-1.2-0.6-1.5-1s-0.5-0.9-0.5-1.4c0-0.7,0.3-1.3,0.9-1.9s1.3-0.8,2.2-0.8
		C236.4,49.6,236.9,49.7,237.4,49.9z M235.6,58.2c-0.5,0-0.9,0-1.1,0.1c-0.3,0.2-0.4,0.4-0.4,0.7c0,0.3,0.2,0.5,0.5,0.7
		s0.9,0.3,1.7,0.3c0.7,0,1.3-0.1,1.7-0.3s0.6-0.5,0.6-0.8c0-0.1,0-0.2-0.1-0.3c-0.1-0.2-0.4-0.3-0.6-0.3S236.8,58.2,235.6,58.2z
		 M236,50c-0.3,0-0.6,0.2-0.8,0.5s-0.3,0.9-0.3,1.9c0,0.8,0.1,1.3,0.3,1.6s0.4,0.4,0.7,0.4c0.3,0,0.6-0.1,0.8-0.4s0.3-0.8,0.3-1.7
		c0-0.9-0.1-1.6-0.4-1.9C236.6,50.2,236.3,50,236,50z"/>
	<path d="M243.7,49.8v1.7c0.5-0.8,0.9-1.3,1.3-1.5s0.7-0.4,1.1-0.4c0.3,0,0.5,0.1,0.7,0.3s0.3,0.4,0.3,0.8c0,0.3-0.1,0.6-0.3,0.8
		s-0.4,0.3-0.6,0.3c-0.3,0-0.5-0.1-0.7-0.3s-0.3-0.3-0.4-0.3c-0.1,0-0.1,0-0.2,0c-0.2,0-0.3,0.1-0.4,0.2c-0.2,0.2-0.4,0.4-0.5,0.8
		c-0.2,0.5-0.2,1.1-0.2,1.7v1.7l0,0.4c0,0.3,0,0.5,0.1,0.6c0.1,0.1,0.2,0.2,0.3,0.3s0.3,0.1,0.6,0.1v0.3h-3.9v-0.3
		c0.3,0,0.5-0.1,0.6-0.3s0.2-0.5,0.2-1.2v-4c0-0.4,0-0.7-0.1-0.8c-0.1-0.1-0.1-0.3-0.2-0.3s-0.3-0.1-0.5-0.1v-0.3H243.7z"/>
	<path d="M251.8,56c-0.9,0.8-1.7,1.2-2.4,1.2c-0.4,0-0.8-0.1-1-0.4s-0.4-0.6-0.4-1c0-0.6,0.2-1.1,0.7-1.5s1.5-1,3.1-1.8v-0.7
		c0-0.6,0-0.9-0.1-1s-0.2-0.3-0.3-0.4s-0.4-0.2-0.6-0.2c-0.3,0-0.6,0.1-0.8,0.2c-0.1,0.1-0.2,0.2-0.2,0.3c0,0.1,0.1,0.2,0.2,0.4
		c0.2,0.2,0.3,0.4,0.3,0.6c0,0.3-0.1,0.5-0.3,0.7s-0.4,0.3-0.7,0.3c-0.3,0-0.6-0.1-0.8-0.3s-0.3-0.4-0.3-0.7c0-0.4,0.1-0.7,0.4-1.1
		s0.7-0.6,1.2-0.8s1.1-0.3,1.7-0.3c0.7,0,1.2,0.1,1.6,0.4s0.7,0.6,0.8,1c0.1,0.2,0.1,0.7,0.1,1.5v2.8c0,0.3,0,0.5,0,0.6
		s0.1,0.1,0.1,0.2s0.1,0.1,0.2,0.1c0.1,0,0.3-0.1,0.4-0.3l0.2,0.2c-0.3,0.4-0.5,0.7-0.8,0.8s-0.6,0.3-0.9,0.3c-0.4,0-0.7-0.1-1-0.3
		S251.9,56.4,251.8,56z M251.8,55.4V53c-0.6,0.4-1.1,0.8-1.4,1.2c-0.2,0.3-0.3,0.6-0.3,0.9c0,0.2,0.1,0.5,0.3,0.6
		c0.1,0.1,0.3,0.2,0.5,0.2C251.2,55.9,251.5,55.7,251.8,55.4z"/>
	<path d="M258.7,47.1v2.7h1.7v0.8h-1.7v4.5c0,0.4,0,0.7,0.1,0.8s0.1,0.2,0.2,0.3s0.2,0.1,0.3,0.1c0.3,0,0.7-0.3,1-0.8l0.2,0.2
		c-0.4,1-1.1,1.5-2.1,1.5c-0.5,0-0.9-0.1-1.2-0.4s-0.5-0.5-0.6-0.9c-0.1-0.2-0.1-0.7-0.1-1.4v-3.9h-1v-0.3c0.7-0.5,1.2-1,1.7-1.5
		s0.9-1.1,1.2-1.7H258.7z"/>
	<path d="M264,49.8v5.8c0,0.5,0.1,0.8,0.2,1s0.4,0.2,0.7,0.2v0.3h-3.9v-0.3c0.3,0,0.6-0.1,0.7-0.3c0.1-0.1,0.2-0.4,0.2-1v-4.3
		c0-0.5-0.1-0.8-0.2-1s-0.4-0.2-0.7-0.2v-0.3H264z M262.9,46.2c0.3,0,0.6,0.1,0.9,0.4s0.4,0.5,0.4,0.9s-0.1,0.6-0.4,0.9
		s-0.5,0.4-0.9,0.4s-0.6-0.1-0.9-0.4s-0.4-0.5-0.4-0.9s0.1-0.6,0.4-0.9S262.5,46.2,262.9,46.2z"/>
	<path d="M269,49.6c0.6,0,1.2,0.2,1.8,0.5s1,0.8,1.2,1.4s0.4,1.3,0.4,2c0,1-0.3,1.9-0.8,2.6c-0.6,0.8-1.5,1.3-2.6,1.3
		c-1.1,0-1.9-0.4-2.5-1.2s-0.9-1.7-0.9-2.7c0-1,0.3-2,0.9-2.7S267.9,49.6,269,49.6z M269,50.1c-0.3,0-0.5,0.1-0.7,0.3
		S268,51,268,51.6s-0.1,1.4-0.1,2.5c0,0.6,0,1.1,0.1,1.6c0.1,0.4,0.2,0.7,0.4,0.8s0.4,0.3,0.6,0.3c0.2,0,0.4-0.1,0.6-0.2
		c0.2-0.2,0.3-0.4,0.4-0.7c0.1-0.5,0.2-1.5,0.2-3c0-0.9,0-1.5-0.1-1.8s-0.2-0.6-0.4-0.7C269.4,50.2,269.3,50.1,269,50.1z"/>
	<path d="M276.5,49.8v0.9c0.4-0.4,0.7-0.7,1.1-0.9s0.7-0.3,1.1-0.3c0.5,0,0.9,0.1,1.2,0.4s0.5,0.6,0.6,1c0.1,0.3,0.1,0.9,0.1,1.7
		v2.8c0,0.6,0.1,0.9,0.2,1.1s0.3,0.2,0.6,0.3v0.3h-3.7v-0.3c0.3,0,0.5-0.2,0.6-0.3c0.1-0.1,0.1-0.5,0.1-1v-3.2c0-0.6,0-1-0.1-1.1
		s-0.1-0.3-0.2-0.4s-0.2-0.1-0.4-0.1c-0.4,0-0.9,0.3-1.2,1v3.9c0,0.5,0.1,0.9,0.2,1s0.3,0.2,0.6,0.3v0.3h-3.7v-0.3
		c0.3,0,0.5-0.1,0.7-0.3c0.1-0.1,0.1-0.5,0.1-1v-4.1c0-0.6-0.1-0.9-0.2-1s-0.3-0.2-0.6-0.3v-0.3H276.5z"/>
	<path d="M290.5,56c-0.9,0.8-1.7,1.2-2.4,1.2c-0.4,0-0.8-0.1-1-0.4s-0.4-0.6-0.4-1c0-0.6,0.2-1.1,0.7-1.5s1.5-1,3.1-1.8v-0.7
		c0-0.6,0-0.9-0.1-1s-0.2-0.3-0.3-0.4s-0.4-0.2-0.6-0.2c-0.3,0-0.6,0.1-0.8,0.2c-0.1,0.1-0.2,0.2-0.2,0.3c0,0.1,0.1,0.2,0.2,0.4
		c0.2,0.2,0.3,0.4,0.3,0.6c0,0.3-0.1,0.5-0.3,0.7s-0.4,0.3-0.7,0.3c-0.3,0-0.6-0.1-0.8-0.3s-0.3-0.4-0.3-0.7c0-0.4,0.1-0.7,0.4-1.1
		s0.7-0.6,1.2-0.8s1.1-0.3,1.7-0.3c0.7,0,1.2,0.1,1.6,0.4s0.7,0.6,0.8,1c0.1,0.2,0.1,0.7,0.1,1.5v2.8c0,0.3,0,0.5,0,0.6
		s0.1,0.1,0.1,0.2s0.1,0.1,0.2,0.1c0.1,0,0.3-0.1,0.4-0.3l0.2,0.2c-0.3,0.4-0.5,0.7-0.8,0.8s-0.6,0.3-0.9,0.3c-0.4,0-0.7-0.1-1-0.3
		S290.5,56.4,290.5,56z M290.5,55.4V53c-0.6,0.4-1.1,0.8-1.4,1.2c-0.2,0.3-0.3,0.6-0.3,0.9c0,0.2,0.1,0.5,0.3,0.6
		c0.1,0.1,0.3,0.2,0.5,0.2C289.8,55.9,290.1,55.7,290.5,55.4z"/>
	<path d="M297.4,49.8v0.9c0.4-0.4,0.7-0.7,1.1-0.9s0.7-0.3,1.1-0.3c0.5,0,0.9,0.1,1.2,0.4s0.5,0.6,0.6,1c0.1,0.3,0.1,0.9,0.1,1.7
		v2.8c0,0.6,0.1,0.9,0.2,1.1s0.3,0.2,0.6,0.3v0.3h-3.7v-0.3c0.3,0,0.5-0.2,0.6-0.3c0.1-0.1,0.1-0.5,0.1-1v-3.2c0-0.6,0-1-0.1-1.1
		s-0.1-0.3-0.2-0.4s-0.2-0.1-0.4-0.1c-0.4,0-0.9,0.3-1.2,1v3.9c0,0.5,0.1,0.9,0.2,1s0.3,0.2,0.6,0.3v0.3h-3.7v-0.3
		c0.3,0,0.5-0.1,0.7-0.3c0.1-0.1,0.1-0.5,0.1-1v-4.1c0-0.6-0.1-0.9-0.2-1s-0.3-0.2-0.6-0.3v-0.3H297.4z"/>
	<path d="M310.5,46.5v8.4c0,0.6,0,0.9,0,1c0,0.2,0.1,0.3,0.2,0.4s0.3,0.1,0.6,0.2v0.3l-3.1,0.6v-1.2c-0.4,0.4-0.7,0.8-1,0.9
		s-0.6,0.2-1,0.2c-0.9,0-1.7-0.4-2.2-1.2c-0.4-0.7-0.7-1.5-0.7-2.5c0-0.8,0.1-1.5,0.4-2.1s0.6-1.1,1.1-1.4s1-0.5,1.5-0.5
		c0.3,0,0.7,0.1,0.9,0.2s0.6,0.4,0.9,0.7v-2.2c0-0.6,0-0.9-0.1-1c-0.1-0.2-0.2-0.3-0.3-0.3s-0.4-0.1-0.7-0.1v-0.3H310.5z
		 M308.3,51.4c-0.4-0.7-0.9-1.1-1.4-1.1c-0.2,0-0.4,0.1-0.5,0.2c-0.2,0.2-0.4,0.4-0.5,0.9s-0.2,1-0.2,1.9c0,0.9,0.1,1.6,0.2,2
		s0.3,0.8,0.6,1c0.1,0.1,0.3,0.1,0.5,0.1c0.5,0,0.9-0.4,1.3-1.1V51.4z"/>
	<path d="M322.8,51.5c1,0.2,1.7,0.5,2.1,0.9c0.6,0.5,0.9,1.1,0.9,1.8c0,0.8-0.3,1.5-1,2c-0.8,0.6-1.9,0.9-3.4,0.9h-5.4v-0.3
		c0.5,0,0.8,0,1-0.1s0.3-0.2,0.4-0.4s0.1-0.5,0.1-1.1v-6.9c0-0.6,0-0.9-0.1-1.1s-0.2-0.3-0.4-0.4s-0.5-0.1-1-0.1v-0.3h5.1
		c1.2,0,2.1,0.1,2.6,0.3s0.9,0.5,1.2,1s0.4,0.9,0.4,1.4c0,0.5-0.2,1-0.6,1.4S323.8,51.2,322.8,51.5z M320,51.9v3.4l0,0.4
		c0,0.3,0.1,0.5,0.2,0.6s0.4,0.2,0.6,0.2c0.4,0,0.8-0.1,1.2-0.3s0.6-0.5,0.8-0.8s0.3-0.7,0.3-1.2c0-0.5-0.1-0.9-0.3-1.3
		s-0.5-0.7-0.9-0.8S320.8,51.9,320,51.9z M320,51.2c0.7,0,1.3-0.1,1.6-0.2s0.6-0.4,0.8-0.7s0.3-0.7,0.3-1.2s-0.1-0.9-0.3-1.2
		s-0.4-0.5-0.8-0.7s-0.9-0.2-1.7-0.2V51.2z"/>
	<path d="M330.4,49.6c0.6,0,1.2,0.2,1.8,0.5s1,0.8,1.2,1.4s0.4,1.3,0.4,2c0,1-0.3,1.9-0.8,2.6c-0.6,0.8-1.5,1.3-2.6,1.3
		c-1.1,0-1.9-0.4-2.5-1.2s-0.9-1.7-0.9-2.7c0-1,0.3-2,0.9-2.7S329.3,49.6,330.4,49.6z M330.4,50.1c-0.3,0-0.5,0.1-0.7,0.3
		s-0.3,0.6-0.4,1.2s-0.1,1.4-0.1,2.5c0,0.6,0,1.1,0.1,1.6c0.1,0.4,0.2,0.7,0.4,0.8s0.4,0.3,0.6,0.3c0.2,0,0.4-0.1,0.6-0.2
		c0.2-0.2,0.3-0.4,0.4-0.7c0.1-0.5,0.2-1.5,0.2-3c0-0.9,0-1.5-0.1-1.8s-0.2-0.6-0.4-0.7C330.8,50.2,330.6,50.1,330.4,50.1z"/>
	<path d="M338,49.8v1.7c0.5-0.8,0.9-1.3,1.3-1.5s0.7-0.4,1.1-0.4c0.3,0,0.5,0.1,0.7,0.3s0.3,0.4,0.3,0.8c0,0.3-0.1,0.6-0.3,0.8
		s-0.4,0.3-0.6,0.3c-0.3,0-0.5-0.1-0.7-0.3s-0.3-0.3-0.4-0.3c-0.1,0-0.1,0-0.2,0c-0.2,0-0.3,0.1-0.4,0.2c-0.2,0.2-0.4,0.4-0.5,0.8
		c-0.2,0.5-0.2,1.1-0.2,1.7v1.7l0,0.4c0,0.3,0,0.5,0.1,0.6c0.1,0.1,0.2,0.2,0.3,0.3s0.3,0.1,0.6,0.1v0.3H335v-0.3
		c0.3,0,0.5-0.1,0.6-0.3s0.2-0.5,0.2-1.2v-4c0-0.4,0-0.7-0.1-0.8c-0.1-0.1-0.1-0.3-0.2-0.3s-0.3-0.1-0.5-0.1v-0.3H338z"/>
	<path d="M349.1,46.5v8.4c0,0.6,0,0.9,0,1c0,0.2,0.1,0.3,0.2,0.4s0.3,0.1,0.6,0.2v0.3l-3.1,0.6v-1.2c-0.4,0.4-0.7,0.8-1,0.9
		s-0.6,0.2-1,0.2c-0.9,0-1.7-0.4-2.2-1.2c-0.4-0.7-0.7-1.5-0.7-2.5c0-0.8,0.1-1.5,0.4-2.1s0.6-1.1,1.1-1.4s1-0.5,1.5-0.5
		c0.3,0,0.7,0.1,0.9,0.2s0.6,0.4,0.9,0.7v-2.2c0-0.6,0-0.9-0.1-1c-0.1-0.2-0.2-0.3-0.3-0.3s-0.4-0.1-0.7-0.1v-0.3H349.1z
		 M346.9,51.4c-0.4-0.7-0.9-1.1-1.4-1.1c-0.2,0-0.4,0.1-0.5,0.2c-0.2,0.2-0.4,0.4-0.5,0.9s-0.2,1-0.2,1.9c0,0.9,0.1,1.6,0.2,2
		s0.3,0.8,0.6,1c0.1,0.1,0.3,0.1,0.5,0.1c0.5,0,0.9-0.4,1.3-1.1V51.4z"/>
	<path d="M357.1,53.2h-4c0,1,0.3,1.7,0.8,2.3c0.4,0.4,0.8,0.6,1.3,0.6c0.3,0,0.6-0.1,0.9-0.3s0.5-0.5,0.8-0.9l0.3,0.2
		c-0.4,0.8-0.8,1.4-1.3,1.7s-1,0.5-1.7,0.5c-1.1,0-1.9-0.4-2.5-1.2c-0.4-0.7-0.7-1.5-0.7-2.5c0-1.2,0.3-2.2,1-2.9s1.4-1.1,2.3-1.1
		c0.7,0,1.4,0.3,1.9,0.9S357.1,52,357.1,53.2z M355.2,52.6c0-0.8,0-1.4-0.1-1.7s-0.2-0.5-0.4-0.7c-0.1-0.1-0.3-0.1-0.4-0.1
		c-0.3,0-0.5,0.1-0.7,0.4c-0.3,0.5-0.5,1.1-0.5,1.9v0.3H355.2z"/>
	<path d="M361.1,49.8v1.7c0.5-0.8,0.9-1.3,1.3-1.5s0.7-0.4,1.1-0.4c0.3,0,0.5,0.1,0.7,0.3s0.3,0.4,0.3,0.8c0,0.3-0.1,0.6-0.3,0.8
		s-0.4,0.3-0.6,0.3c-0.3,0-0.5-0.1-0.7-0.3s-0.3-0.3-0.4-0.3c-0.1,0-0.1,0-0.2,0c-0.2,0-0.3,0.1-0.4,0.2c-0.2,0.2-0.4,0.4-0.5,0.8
		c-0.2,0.5-0.2,1.1-0.2,1.7v1.7l0,0.4c0,0.3,0,0.5,0.1,0.6c0.1,0.1,0.2,0.2,0.3,0.3s0.3,0.1,0.6,0.1v0.3h-3.9v-0.3
		c0.3,0,0.5-0.1,0.6-0.3s0.2-0.5,0.2-1.2v-4c0-0.4,0-0.7-0.1-0.8c-0.1-0.1-0.1-0.3-0.2-0.3s-0.3-0.1-0.5-0.1v-0.3H361.1z"/>
	<path d="M372.6,52.3v2.9c0,0.6,0,0.9,0.1,1.1s0.2,0.3,0.4,0.4s0.5,0.1,1,0.1v0.3h-5.4v-0.3c0.5,0,0.8,0,1-0.1s0.3-0.2,0.4-0.4
		s0.1-0.5,0.1-1.1v-6.9c0-0.6,0-0.9-0.1-1.1s-0.2-0.3-0.4-0.4s-0.5-0.1-1-0.1v-0.3h4.6c1.5,0,2.6,0.3,3.3,0.8s1,1.2,1,2
		c0,0.7-0.2,1.3-0.6,1.8s-1,0.8-1.8,1C374.7,52.2,373.8,52.3,372.6,52.3z M372.6,47.1v4.6c0.2,0,0.3,0,0.4,0c0.6,0,1.1-0.2,1.5-0.6
		s0.5-1,0.5-1.8c0-0.8-0.2-1.4-0.5-1.7s-0.9-0.5-1.5-0.5H372.6z"/>
	<path d="M381.6,49.8v1.7c0.5-0.8,0.9-1.3,1.3-1.5s0.7-0.4,1.1-0.4c0.3,0,0.5,0.1,0.7,0.3s0.3,0.4,0.3,0.8c0,0.3-0.1,0.6-0.3,0.8
		s-0.4,0.3-0.6,0.3c-0.3,0-0.5-0.1-0.7-0.3s-0.3-0.3-0.4-0.3c-0.1,0-0.1,0-0.2,0c-0.2,0-0.3,0.1-0.4,0.2c-0.2,0.2-0.4,0.4-0.5,0.8
		c-0.2,0.5-0.2,1.1-0.2,1.7v1.7l0,0.4c0,0.3,0,0.5,0.1,0.6c0.1,0.1,0.2,0.2,0.3,0.3s0.3,0.1,0.6,0.1v0.3h-3.9v-0.3
		c0.3,0,0.5-0.1,0.6-0.3s0.2-0.5,0.2-1.2v-4c0-0.4,0-0.7-0.1-0.8c-0.1-0.1-0.1-0.3-0.2-0.3s-0.3-0.1-0.5-0.1v-0.3H381.6z"/>
	<path d="M388.9,49.6c0.6,0,1.2,0.2,1.8,0.5s1,0.8,1.2,1.4s0.4,1.3,0.4,2c0,1-0.3,1.9-0.8,2.6c-0.6,0.8-1.5,1.3-2.6,1.3
		c-1.1,0-1.9-0.4-2.5-1.2s-0.9-1.7-0.9-2.7c0-1,0.3-2,0.9-2.7S387.8,49.6,388.9,49.6z M388.9,50.1c-0.3,0-0.5,0.1-0.7,0.3
		s-0.3,0.6-0.4,1.2s-0.1,1.4-0.1,2.5c0,0.6,0,1.1,0.1,1.6c0.1,0.4,0.2,0.7,0.4,0.8s0.4,0.3,0.6,0.3c0.2,0,0.4-0.1,0.6-0.2
		c0.2-0.2,0.3-0.4,0.4-0.7c0.1-0.5,0.2-1.5,0.2-3c0-0.9,0-1.5-0.1-1.8s-0.2-0.6-0.4-0.7C389.3,50.2,389.1,50.1,388.9,50.1z"/>
	<path d="M396.3,47.1v2.7h1.7v0.8h-1.7v4.5c0,0.4,0,0.7,0.1,0.8s0.1,0.2,0.2,0.3s0.2,0.1,0.3,0.1c0.3,0,0.7-0.3,1-0.8l0.2,0.2
		c-0.4,1-1.1,1.5-2.1,1.5c-0.5,0-0.9-0.1-1.2-0.4s-0.5-0.5-0.6-0.9c-0.1-0.2-0.1-0.7-0.1-1.4v-3.9h-1v-0.3c0.7-0.5,1.2-1,1.7-1.5
		s0.9-1.1,1.2-1.7H396.3z"/>
	<path d="M404.9,53.2h-4c0,1,0.3,1.7,0.8,2.3c0.4,0.4,0.8,0.6,1.3,0.6c0.3,0,0.6-0.1,0.9-0.3s0.5-0.5,0.8-0.9l0.3,0.2
		c-0.4,0.8-0.8,1.4-1.3,1.7s-1,0.5-1.7,0.5c-1.1,0-1.9-0.4-2.5-1.2c-0.4-0.7-0.7-1.5-0.7-2.5c0-1.2,0.3-2.2,1-2.9s1.4-1.1,2.3-1.1
		c0.7,0,1.4,0.3,1.9,0.9S404.9,52,404.9,53.2z M403,52.6c0-0.8,0-1.4-0.1-1.7s-0.2-0.5-0.4-0.7c-0.1-0.1-0.3-0.1-0.4-0.1
		c-0.3,0-0.5,0.1-0.7,0.4c-0.3,0.5-0.5,1.1-0.5,1.9v0.3H403z"/>
	<path d="M411.8,55.2l0.2,0.2c-0.3,0.6-0.8,1.1-1.3,1.4s-1.1,0.5-1.6,0.5c-1,0-1.8-0.4-2.3-1.1s-0.9-1.6-0.9-2.6
		c0-1,0.3-1.9,0.8-2.6c0.6-0.9,1.5-1.4,2.6-1.4c0.8,0,1.4,0.2,1.8,0.6s0.7,0.8,0.7,1.3c0,0.3-0.1,0.5-0.3,0.7s-0.4,0.3-0.7,0.3
		c-0.3,0-0.6-0.1-0.8-0.3s-0.3-0.6-0.4-1.1c0-0.3-0.1-0.6-0.2-0.7s-0.3-0.2-0.4-0.2c-0.2,0-0.5,0.1-0.6,0.4c-0.3,0.4-0.4,1-0.4,1.8
		c0,0.7,0.1,1.3,0.3,2s0.5,1.1,0.9,1.4c0.3,0.2,0.6,0.3,1,0.3c0.3,0,0.5-0.1,0.7-0.2S411.5,55.5,411.8,55.2z"/>
	<path d="M415.9,47.1v2.7h1.7v0.8h-1.7v4.5c0,0.4,0,0.7,0.1,0.8s0.1,0.2,0.2,0.3s0.2,0.1,0.3,0.1c0.3,0,0.7-0.3,1-0.8l0.2,0.2
		c-0.4,1-1.1,1.5-2.1,1.5c-0.5,0-0.9-0.1-1.2-0.4s-0.5-0.5-0.6-0.9c-0.1-0.2-0.1-0.7-0.1-1.4v-3.9h-1v-0.3c0.7-0.5,1.2-1,1.7-1.5
		s0.9-1.1,1.2-1.7H415.9z"/>
	<path d="M421.1,49.8v5.8c0,0.5,0.1,0.8,0.2,1s0.4,0.2,0.7,0.2v0.3h-3.9v-0.3c0.3,0,0.6-0.1,0.7-0.3c0.1-0.1,0.2-0.4,0.2-1v-4.3
		c0-0.5-0.1-0.8-0.2-1s-0.4-0.2-0.7-0.2v-0.3H421.1z M420,46.2c0.3,0,0.6,0.1,0.9,0.4s0.4,0.5,0.4,0.9s-0.1,0.6-0.4,0.9
		s-0.5,0.4-0.9,0.4s-0.6-0.1-0.9-0.4s-0.4-0.5-0.4-0.9s0.1-0.6,0.4-0.9S419.7,46.2,420,46.2z"/>
	<path d="M426.2,49.6c0.6,0,1.2,0.2,1.8,0.5s1,0.8,1.2,1.4s0.4,1.3,0.4,2c0,1-0.3,1.9-0.8,2.6c-0.6,0.8-1.5,1.3-2.6,1.3
		c-1.1,0-1.9-0.4-2.5-1.2s-0.9-1.7-0.9-2.7c0-1,0.3-2,0.9-2.7S425.1,49.6,426.2,49.6z M426.2,50.1c-0.3,0-0.5,0.1-0.7,0.3
		s-0.3,0.6-0.4,1.2s-0.1,1.4-0.1,2.5c0,0.6,0,1.1,0.1,1.6c0.1,0.4,0.2,0.7,0.4,0.8s0.4,0.3,0.6,0.3c0.2,0,0.4-0.1,0.6-0.2
		c0.2-0.2,0.3-0.4,0.4-0.7c0.1-0.5,0.2-1.5,0.2-3c0-0.9,0-1.5-0.1-1.8s-0.2-0.6-0.4-0.7C426.6,50.2,426.4,50.1,426.2,50.1z"/>
	<path d="M433.7,49.8v0.9c0.4-0.4,0.7-0.7,1.1-0.9s0.7-0.3,1.1-0.3c0.5,0,0.9,0.1,1.2,0.4s0.5,0.6,0.6,1c0.1,0.3,0.1,0.9,0.1,1.7
		v2.8c0,0.6,0.1,0.9,0.2,1.1s0.3,0.2,0.6,0.3v0.3h-3.7v-0.3c0.3,0,0.5-0.2,0.6-0.3c0.1-0.1,0.1-0.5,0.1-1v-3.2c0-0.6,0-1-0.1-1.1
		s-0.1-0.3-0.2-0.4s-0.2-0.1-0.4-0.1c-0.4,0-0.9,0.3-1.2,1v3.9c0,0.5,0.1,0.9,0.2,1s0.3,0.2,0.6,0.3v0.3h-3.7v-0.3
		c0.3,0,0.5-0.1,0.7-0.3c0.1-0.1,0.1-0.5,0.1-1v-4.1c0-0.6-0.1-0.9-0.2-1s-0.3-0.2-0.6-0.3v-0.3H433.7z"/>
</g>
</svg>
